<svg xmlns="http://www.w3.org/2000/svg" xmlns:xlink="http://www.w3.org/1999/xlink" width="320" zoomAndPan="magnify" viewBox="0 0 240 48" height="64" preserveAspectRatio="xMidYMid meet" version="1.0"><defs><g/><clipPath id="f8fef6884b"><path d="M 12.691406 0.464844 L 50.164062 0.464844 L 50.164062 46.75 L 12.691406 46.75 Z M 12.691406 0.464844 " clip-rule="nonzero"/></clipPath></defs><g fill="#ffffff" fill-opacity="1"><g transform="translate(52.608558, 38.876499)"><g><path d="M 1.765625 -6.78125 C 1.765625 -7.632812 2.003906 -8.328125 2.484375 -8.859375 C 2.972656 -9.398438 3.523438 -9.671875 4.140625 -9.671875 C 4.640625 -9.671875 5.101562 -9.488281 5.53125 -9.125 C 5.0625 -8.976562 4.726562 -8.710938 4.53125 -8.328125 C 4.34375 -7.941406 4.25 -7.5 4.25 -7 C 4.25 -6.144531 4.539062 -5.300781 5.125 -4.46875 C 5.71875 -3.632812 6.515625 -2.878906 7.515625 -2.203125 C 8.523438 -1.523438 9.675781 -0.988281 10.96875 -0.59375 C 12.269531 -0.195312 13.628906 0 15.046875 0 C 16.429688 0 17.753906 -0.171875 19.015625 -0.515625 C 20.285156 -0.859375 21.414062 -1.363281 22.40625 -2.03125 C 23.40625 -2.707031 24.1875 -3.546875 24.75 -4.546875 C 25.320312 -5.546875 25.609375 -6.707031 25.609375 -8.03125 C 25.609375 -9.363281 25.347656 -10.46875 24.828125 -11.34375 C 24.304688 -12.21875 23.585938 -12.914062 22.671875 -13.4375 C 21.765625 -13.96875 20.726562 -14.390625 19.5625 -14.703125 C 18.394531 -15.015625 17.160156 -15.269531 15.859375 -15.46875 C 14.566406 -15.675781 13.273438 -15.882812 11.984375 -16.09375 C 10.703125 -16.3125 9.476562 -16.59375 8.3125 -16.9375 C 7.144531 -17.28125 6.101562 -17.738281 5.1875 -18.3125 C 4.28125 -18.894531 3.5625 -19.648438 3.03125 -20.578125 C 2.507812 -21.515625 2.25 -22.691406 2.25 -24.109375 C 2.25 -25.671875 2.625 -27.003906 3.375 -28.109375 C 4.125 -29.210938 5.117188 -30.101562 6.359375 -30.78125 C 7.609375 -31.46875 8.988281 -31.972656 10.5 -32.296875 C 12.007812 -32.617188 13.515625 -32.78125 15.015625 -32.78125 C 16.296875 -32.78125 17.617188 -32.675781 18.984375 -32.46875 C 20.359375 -32.269531 21.644531 -31.945312 22.84375 -31.5 C 24.050781 -31.050781 25.023438 -30.472656 25.765625 -29.765625 C 26.503906 -29.054688 26.875 -28.1875 26.875 -27.15625 C 26.875 -26.664062 26.773438 -26.234375 26.578125 -25.859375 C 26.390625 -25.484375 26.054688 -25.207031 25.578125 -25.03125 C 25.285156 -26.53125 24.59375 -27.804688 23.5 -28.859375 C 22.40625 -29.910156 21.066406 -30.71875 19.484375 -31.28125 C 17.910156 -31.851562 16.238281 -32.140625 14.46875 -32.140625 C 11.425781 -32.140625 9.007812 -31.460938 7.21875 -30.109375 C 5.425781 -28.765625 4.53125 -26.816406 4.53125 -24.265625 C 4.53125 -23.148438 4.859375 -22.257812 5.515625 -21.59375 C 6.171875 -20.9375 7.050781 -20.40625 8.15625 -20 C 9.269531 -19.601562 10.523438 -19.273438 11.921875 -19.015625 C 13.316406 -18.765625 14.753906 -18.515625 16.234375 -18.265625 C 17.710938 -18.023438 19.144531 -17.707031 20.53125 -17.3125 C 21.925781 -16.914062 23.179688 -16.378906 24.296875 -15.703125 C 25.410156 -15.023438 26.296875 -14.144531 26.953125 -13.0625 C 27.609375 -11.976562 27.9375 -10.601562 27.9375 -8.9375 C 27.9375 -7.3125 27.570312 -5.890625 26.84375 -4.671875 C 26.113281 -3.460938 25.128906 -2.46875 23.890625 -1.6875 C 22.660156 -0.90625 21.28125 -0.320312 19.75 0.0625 C 18.21875 0.445312 16.648438 0.640625 15.046875 0.640625 C 12.429688 0.640625 10.117188 0.332031 8.109375 -0.28125 C 6.109375 -0.90625 4.550781 -1.78125 3.4375 -2.90625 C 2.320312 -4.03125 1.765625 -5.320312 1.765625 -6.78125 Z M 1.765625 -6.78125 "/></g></g></g><g fill="#ffffff" fill-opacity="1"><g transform="translate(82.008722, 38.876499)"><g><path d="M 2.578125 0 L 2.578125 -32.140625 L 24.84375 -32.140625 L 24.84375 -29.28125 C 24.175781 -29.5 23.316406 -29.710938 22.265625 -29.921875 C 21.222656 -30.140625 20.054688 -30.34375 18.765625 -30.53125 C 17.484375 -30.726562 16.140625 -30.894531 14.734375 -31.03125 C 13.328125 -31.164062 11.945312 -31.273438 10.59375 -31.359375 C 9.25 -31.453125 7.988281 -31.5 6.8125 -31.5 C 6.238281 -31.5 5.8125 -31.351562 5.53125 -31.0625 C 5.25 -30.769531 5.109375 -30.1875 5.109375 -29.3125 L 5.109375 -19.15625 C 5.109375 -18.6875 5.257812 -18.300781 5.5625 -18 C 5.863281 -17.695312 6.25 -17.546875 6.71875 -17.546875 L 21.6875 -17.546875 L 21.6875 -14.84375 C 20.75 -15.082031 19.613281 -15.3125 18.28125 -15.53125 C 16.957031 -15.757812 15.578125 -15.96875 14.140625 -16.15625 C 12.703125 -16.351562 11.332031 -16.503906 10.03125 -16.609375 C 8.738281 -16.722656 7.644531 -16.78125 6.75 -16.78125 C 6.28125 -16.78125 5.894531 -16.664062 5.59375 -16.4375 C 5.289062 -16.21875 5.140625 -15.859375 5.140625 -15.359375 L 5.109375 -2.828125 C 5.109375 -1.972656 5.25 -1.394531 5.53125 -1.09375 C 5.8125 -0.789062 6.238281 -0.640625 6.8125 -0.640625 C 7.988281 -0.640625 9.25 -0.679688 10.59375 -0.765625 C 11.945312 -0.859375 13.328125 -0.972656 14.734375 -1.109375 C 16.140625 -1.242188 17.484375 -1.40625 18.765625 -1.59375 C 20.054688 -1.789062 21.222656 -2 22.265625 -2.21875 C 23.316406 -2.4375 24.175781 -2.648438 24.84375 -2.859375 L 24.84375 0 Z M 2.578125 0 "/></g></g></g><g fill="#ffffff" fill-opacity="1"><g transform="translate(108.774118, 38.876499)"><g><path d="M 3.46875 0 L 0.640625 0 L 11.609375 -30.625 L 10.921875 -32.140625 L 13.75 -32.140625 L 28.09375 0 L 25.265625 0 L 22.921875 -5.234375 C 22.535156 -6.117188 21.96875 -6.910156 21.21875 -7.609375 C 20.46875 -8.316406 19.617188 -8.914062 18.671875 -9.40625 C 17.734375 -9.90625 16.757812 -10.28125 15.75 -10.53125 C 14.738281 -10.789062 13.785156 -10.921875 12.890625 -10.921875 C 11.859375 -10.921875 10.84375 -10.757812 9.84375 -10.4375 C 8.851562 -10.125 7.882812 -9.625 6.9375 -8.9375 C 6.59375 -8.675781 6.25 -8.25 5.90625 -7.65625 C 5.570312 -7.070312 5.328125 -6.523438 5.171875 -6.015625 Z M 6.96875 -12.1875 C 6.820312 -11.601562 6.878906 -11.3125 7.140625 -11.3125 C 7.265625 -11.3125 7.5 -11.398438 7.84375 -11.578125 C 8.488281 -11.929688 9.148438 -12.1875 9.828125 -12.34375 C 10.515625 -12.507812 11.210938 -12.59375 11.921875 -12.59375 C 13.441406 -12.59375 14.941406 -12.269531 16.421875 -11.625 C 17.898438 -10.988281 19.25 -10.164062 20.46875 -9.15625 C 20.832031 -8.851562 21.0625 -8.738281 21.15625 -8.8125 C 21.257812 -8.894531 21.210938 -9.148438 21.015625 -9.578125 L 12.734375 -28.15625 C 12.535156 -28.601562 12.328125 -28.828125 12.109375 -28.828125 C 11.898438 -28.828125 11.707031 -28.570312 11.53125 -28.0625 Z M 6.96875 -12.1875 "/></g></g></g><g fill="#ffffff" fill-opacity="1"><g transform="translate(136.953297, 38.876499)"><g><path d="M 0.09375 -32.140625 L 2.921875 -32.140625 L 15.453125 -3.984375 C 15.648438 -3.535156 15.859375 -3.3125 16.078125 -3.3125 C 16.304688 -3.3125 16.5 -3.566406 16.65625 -4.078125 L 19.796875 -15.046875 C 19.921875 -15.515625 19.96875 -16.023438 19.9375 -16.578125 C 19.90625 -17.140625 19.796875 -17.632812 19.609375 -18.0625 L 13.3125 -32.140625 L 16.140625 -32.140625 L 20.703125 -21.921875 C 20.890625 -21.492188 21.082031 -21.28125 21.28125 -21.28125 C 21.488281 -21.28125 21.660156 -21.515625 21.796875 -21.984375 L 24.71875 -32.140625 L 27.546875 -32.140625 L 23.046875 -19.375 C 22.890625 -18.925781 22.816406 -18.421875 22.828125 -17.859375 C 22.847656 -17.304688 22.953125 -16.816406 23.140625 -16.390625 L 28.671875 -3.984375 C 28.859375 -3.535156 29.0625 -3.3125 29.28125 -3.3125 C 29.519531 -3.3125 29.710938 -3.566406 29.859375 -4.078125 L 37.921875 -32.140625 L 40.75 -32.140625 L 29.375 0 L 27.640625 0 L 21.890625 -12.859375 C 21.691406 -13.285156 21.476562 -13.5 21.25 -13.5 C 21.050781 -13.5 20.867188 -13.273438 20.703125 -12.828125 L 16.171875 0 L 14.4375 0 Z M 0.09375 -32.140625 "/></g></g></g><g fill="#ffffff" fill-opacity="1"><g transform="translate(178.338446, 38.876499)"><g><path d="M 3.46875 0 L 0.640625 0 L 11.609375 -30.625 L 10.921875 -32.140625 L 13.75 -32.140625 L 28.09375 0 L 25.265625 0 L 22.921875 -5.234375 C 22.535156 -6.117188 21.96875 -6.910156 21.21875 -7.609375 C 20.46875 -8.316406 19.617188 -8.914062 18.671875 -9.40625 C 17.734375 -9.90625 16.757812 -10.28125 15.75 -10.53125 C 14.738281 -10.789062 13.785156 -10.921875 12.890625 -10.921875 C 11.859375 -10.921875 10.84375 -10.757812 9.84375 -10.4375 C 8.851562 -10.125 7.882812 -9.625 6.9375 -8.9375 C 6.59375 -8.675781 6.25 -8.25 5.90625 -7.65625 C 5.570312 -7.070312 5.328125 -6.523438 5.171875 -6.015625 Z M 6.96875 -12.1875 C 6.820312 -11.601562 6.878906 -11.3125 7.140625 -11.3125 C 7.265625 -11.3125 7.5 -11.398438 7.84375 -11.578125 C 8.488281 -11.929688 9.148438 -12.1875 9.828125 -12.34375 C 10.515625 -12.507812 11.210938 -12.59375 11.921875 -12.59375 C 13.441406 -12.59375 14.941406 -12.269531 16.421875 -11.625 C 17.898438 -10.988281 19.25 -10.164062 20.46875 -9.15625 C 20.832031 -8.851562 21.0625 -8.738281 21.15625 -8.8125 C 21.257812 -8.894531 21.210938 -9.148438 21.015625 -9.578125 L 12.734375 -28.15625 C 12.535156 -28.601562 12.328125 -28.828125 12.109375 -28.828125 C 11.898438 -28.828125 11.707031 -28.570312 11.53125 -28.0625 Z M 6.96875 -12.1875 "/></g></g></g><g fill="#ffffff" fill-opacity="1"><g transform="translate(206.517626, 38.876499)"><g><path d="M 11.15625 -16.296875 L 0.09375 -32.140625 L 2.828125 -32.140625 L 13.40625 -16.78125 C 13.65625 -16.394531 13.910156 -16.203125 14.171875 -16.203125 C 14.492188 -16.203125 14.773438 -16.414062 15.015625 -16.84375 L 23.75 -32.140625 L 26.515625 -32.140625 L 15.453125 -16.296875 C 15.179688 -15.910156 14.96875 -15.441406 14.8125 -14.890625 C 14.664062 -14.347656 14.59375 -13.832031 14.59375 -13.34375 L 14.59375 0 L 12.015625 0 L 12.015625 -13.34375 C 12.015625 -13.832031 11.941406 -14.347656 11.796875 -14.890625 C 11.648438 -15.441406 11.4375 -15.910156 11.15625 -16.296875 Z M 11.15625 -16.296875 "/></g></g></g><g clip-path="url(#f8fef6884b)"><path fill="#ffffff" d="M 43.363281 17.410156 L 31.53125 0.46875 L 12.695312 27.441406 L 20.902344 35.765625 C 20.996094 35.867188 21.089844 35.964844 21.183594 36.050781 L 31.53125 46.546875 L 50.367188 27.441406 L 43.390625 17.453125 L 43.398438 17.445312 C 43.386719 17.433594 43.375 17.421875 43.363281 17.410156 Z M 41.6875 16.363281 C 41 16.105469 40.234375 15.980469 39.410156 15.996094 C 37.089844 16.042969 33.242188 17.242188 28.019531 22.628906 C 27.53125 22.132812 26.480469 21.191406 25.011719 20.535156 C 23.414062 19.824219 21.054688 19.355469 18.359375 20.679688 L 31.53125 1.824219 Z M 17.324219 22.257812 C 19.730469 20.511719 22.195312 20.179688 24.65625 21.265625 C 26.023438 21.871094 27.019531 22.769531 27.457031 23.214844 C 24.589844 26.121094 21.378906 27.660156 17.910156 27.789062 C 15.980469 27.859375 14.484375 27.449219 13.796875 27.214844 L 17.292969 22.210938 Z M 21.410156 35.121094 L 21.378906 35.148438 L 20.210938 33.964844 C 20.5625 34.03125 20.972656 34.074219 21.441406 34.074219 C 22.984375 34.074219 25.484375 33.5625 28.640625 31.128906 C 31.027344 29.28125 37.035156 25.144531 41.199219 26.542969 C 43.066406 27.167969 44.386719 28.867188 45.128906 31.589844 L 45.214844 31.566406 L 40.90625 35.9375 C 40.953125 34.566406 40.574219 33.558594 39.765625 32.933594 C 37.714844 31.347656 33.542969 32.742188 30.398438 34.195312 C 24.488281 36.921875 22.902344 36.808594 21.410156 35.121094 Z M 23.3125 37.105469 C 23.496094 37.132812 23.6875 37.144531 23.886719 37.144531 C 24.027344 37.144531 24.171875 37.136719 24.320312 37.125 C 25.726562 37.015625 27.648438 36.359375 30.742188 34.929688 C 34.894531 33.015625 37.921875 32.53125 39.269531 33.574219 C 40.019531 34.15625 40.261719 35.261719 39.992188 36.859375 L 31.53125 45.441406 Z M 49.363281 27.359375 L 45.796875 30.976562 C 44.957031 28.207031 43.5 26.457031 41.457031 25.773438 C 37.085938 24.304688 31.238281 28.09375 28.144531 30.484375 C 25.203125 32.757812 22.910156 33.25 21.503906 33.265625 C 20 33.277344 19.167969 32.761719 19.160156 32.757812 L 19.105469 32.839844 L 14.617188 28.292969 C 15.355469 28.460938 16.324219 28.609375 17.457031 28.609375 C 17.601562 28.609375 17.75 28.605469 17.898438 28.601562 C 20.519531 28.511719 24.453125 27.554688 28.308594 23.5 C 30.488281 21.210938 32.605469 19.472656 34.609375 18.339844 C 36.355469 17.351562 37.972656 16.835938 39.425781 16.808594 C 40.800781 16.78125 41.980469 17.203125 42.832031 18.027344 L 42.839844 18.019531 Z M 49.363281 27.359375 " fill-opacity="1" fill-rule="nonzero"/></g></svg>