<svg xmlns="http://www.w3.org/2000/svg" xmlns:xlink="http://www.w3.org/1999/xlink" width="320" zoomAndPan="magnify" viewBox="0 0 240 48" height="64" preserveAspectRatio="xMidYMid meet" version="1.0"><defs><g/><clipPath id="1647e86805"><path d="M 2.449219 0 L 40.652344 0 L 40.652344 47.019531 L 2.449219 47.019531 Z M 2.449219 0 " clip-rule="nonzero"/></clipPath></defs><g fill="#6e6949" fill-opacity="1"><g transform="translate(39.646618, 41.826815)"><g><path d="M 1.921875 -7.390625 C 1.921875 -8.328125 2.179688 -9.085938 2.703125 -9.671875 C 3.234375 -10.253906 3.835938 -10.546875 4.515625 -10.546875 C 5.054688 -10.546875 5.5625 -10.347656 6.03125 -9.953125 C 5.507812 -9.785156 5.144531 -9.488281 4.9375 -9.0625 C 4.726562 -8.644531 4.625 -8.171875 4.625 -7.640625 C 4.625 -6.703125 4.941406 -5.773438 5.578125 -4.859375 C 6.222656 -3.953125 7.09375 -3.128906 8.1875 -2.390625 C 9.289062 -1.660156 10.546875 -1.078125 11.953125 -0.640625 C 13.367188 -0.210938 14.847656 0 16.390625 0 C 17.910156 0 19.359375 -0.1875 20.734375 -0.5625 C 22.117188 -0.9375 23.351562 -1.488281 24.4375 -2.21875 C 25.519531 -2.957031 26.367188 -3.867188 26.984375 -4.953125 C 27.609375 -6.035156 27.921875 -7.304688 27.921875 -8.765625 C 27.921875 -10.210938 27.632812 -11.410156 27.0625 -12.359375 C 26.488281 -13.316406 25.703125 -14.082031 24.703125 -14.65625 C 23.710938 -15.226562 22.582031 -15.679688 21.3125 -16.015625 C 20.039062 -16.359375 18.695312 -16.640625 17.28125 -16.859375 C 15.875 -17.085938 14.46875 -17.316406 13.0625 -17.546875 C 11.664062 -17.785156 10.328125 -18.085938 9.046875 -18.453125 C 7.773438 -18.828125 6.644531 -19.328125 5.65625 -19.953125 C 4.664062 -20.585938 3.882812 -21.414062 3.3125 -22.4375 C 2.738281 -23.457031 2.453125 -24.738281 2.453125 -26.28125 C 2.453125 -27.976562 2.859375 -29.425781 3.671875 -30.625 C 4.492188 -31.832031 5.582031 -32.8125 6.9375 -33.5625 C 8.289062 -34.3125 9.789062 -34.859375 11.4375 -35.203125 C 13.082031 -35.554688 14.722656 -35.734375 16.359375 -35.734375 C 17.765625 -35.734375 19.210938 -35.617188 20.703125 -35.390625 C 22.203125 -35.171875 23.601562 -34.816406 24.90625 -34.328125 C 26.21875 -33.835938 27.273438 -33.207031 28.078125 -32.4375 C 28.878906 -31.664062 29.28125 -30.71875 29.28125 -29.59375 C 29.28125 -29.0625 29.175781 -28.585938 28.96875 -28.171875 C 28.757812 -27.765625 28.398438 -27.472656 27.890625 -27.296875 C 27.554688 -28.921875 26.796875 -30.304688 25.609375 -31.453125 C 24.421875 -32.597656 22.96875 -33.476562 21.25 -34.09375 C 19.53125 -34.71875 17.703125 -35.03125 15.765625 -35.03125 C 12.453125 -35.03125 9.816406 -34.296875 7.859375 -32.828125 C 5.910156 -31.359375 4.9375 -29.234375 4.9375 -26.453125 C 4.9375 -25.234375 5.289062 -24.257812 6 -23.53125 C 6.71875 -22.8125 7.679688 -22.234375 8.890625 -21.796875 C 10.109375 -21.367188 11.476562 -21.015625 13 -20.734375 C 14.519531 -20.453125 16.082031 -20.175781 17.6875 -19.90625 C 19.300781 -19.644531 20.863281 -19.296875 22.375 -18.859375 C 23.894531 -18.429688 25.265625 -17.847656 26.484375 -17.109375 C 27.703125 -16.378906 28.664062 -15.421875 29.375 -14.234375 C 30.082031 -13.054688 30.4375 -11.554688 30.4375 -9.734375 C 30.4375 -7.960938 30.039062 -6.414062 29.25 -5.09375 C 28.457031 -3.78125 27.390625 -2.695312 26.046875 -1.84375 C 24.703125 -0.988281 23.191406 -0.351562 21.515625 0.0625 C 19.847656 0.488281 18.140625 0.703125 16.390625 0.703125 C 13.546875 0.703125 11.03125 0.363281 8.84375 -0.3125 C 6.65625 -0.988281 4.953125 -1.941406 3.734375 -3.171875 C 2.523438 -4.398438 1.921875 -5.804688 1.921875 -7.390625 Z M 1.921875 -7.390625 "/></g></g></g><g fill="#6e6949" fill-opacity="1"><g transform="translate(71.685236, 41.826815)"><g><path d="M 2.796875 0 L 2.796875 -35.03125 L 27.078125 -35.03125 L 27.078125 -31.90625 C 26.359375 -32.144531 25.425781 -32.378906 24.28125 -32.609375 C 23.132812 -32.847656 21.859375 -33.070312 20.453125 -33.28125 C 19.054688 -33.488281 17.59375 -33.664062 16.0625 -33.8125 C 14.53125 -33.96875 13.03125 -34.09375 11.5625 -34.1875 C 10.09375 -34.28125 8.710938 -34.328125 7.421875 -34.328125 C 6.796875 -34.328125 6.328125 -34.171875 6.015625 -33.859375 C 5.710938 -33.546875 5.5625 -32.910156 5.5625 -31.953125 L 5.5625 -20.875 C 5.5625 -20.363281 5.722656 -19.941406 6.046875 -19.609375 C 6.378906 -19.285156 6.804688 -19.125 7.328125 -19.125 L 23.640625 -19.125 L 23.640625 -16.1875 C 22.617188 -16.4375 21.382812 -16.6875 19.9375 -16.9375 C 18.488281 -17.1875 16.976562 -17.414062 15.40625 -17.625 C 13.84375 -17.832031 12.351562 -17.992188 10.9375 -18.109375 C 9.53125 -18.222656 8.335938 -18.28125 7.359375 -18.28125 C 6.835938 -18.28125 6.414062 -18.15625 6.09375 -17.90625 C 5.769531 -17.664062 5.609375 -17.28125 5.609375 -16.75 L 5.5625 -3.078125 C 5.5625 -2.148438 5.710938 -1.519531 6.015625 -1.1875 C 6.328125 -0.863281 6.796875 -0.703125 7.421875 -0.703125 C 8.710938 -0.703125 10.09375 -0.75 11.5625 -0.84375 C 13.03125 -0.9375 14.53125 -1.054688 16.0625 -1.203125 C 17.59375 -1.359375 19.054688 -1.539062 20.453125 -1.75 C 21.859375 -1.957031 23.132812 -2.175781 24.28125 -2.40625 C 25.425781 -2.644531 26.359375 -2.882812 27.078125 -3.125 L 27.078125 0 Z M 2.796875 0 "/></g></g></g><g fill="#6e6949" fill-opacity="1"><g transform="translate(100.852642, 41.826815)"><g><path d="M 3.78125 0 L 0.703125 0 L 12.640625 -33.390625 L 11.90625 -35.03125 L 15 -35.03125 L 30.625 0 L 27.53125 0 L 24.984375 -5.703125 C 24.554688 -6.660156 23.929688 -7.523438 23.109375 -8.296875 C 22.296875 -9.066406 21.375 -9.71875 20.34375 -10.25 C 19.320312 -10.789062 18.257812 -11.203125 17.15625 -11.484375 C 16.0625 -11.765625 15.023438 -11.90625 14.046875 -11.90625 C 12.921875 -11.90625 11.816406 -11.726562 10.734375 -11.375 C 9.648438 -11.03125 8.59375 -10.484375 7.5625 -9.734375 C 7.1875 -9.453125 6.8125 -8.988281 6.4375 -8.34375 C 6.070312 -7.707031 5.804688 -7.109375 5.640625 -6.546875 Z M 7.609375 -13.28125 C 7.441406 -12.644531 7.5 -12.328125 7.78125 -12.328125 C 7.914062 -12.328125 8.171875 -12.421875 8.546875 -12.609375 C 9.242188 -13.003906 9.96875 -13.289062 10.71875 -13.46875 C 11.46875 -13.644531 12.226562 -13.734375 13 -13.734375 C 14.65625 -13.734375 16.285156 -13.378906 17.890625 -12.671875 C 19.503906 -11.972656 20.976562 -11.078125 22.3125 -9.984375 C 22.707031 -9.660156 22.957031 -9.535156 23.0625 -9.609375 C 23.164062 -9.691406 23.113281 -9.96875 22.90625 -10.4375 L 13.875 -30.6875 C 13.664062 -31.175781 13.441406 -31.421875 13.203125 -31.421875 C 12.972656 -31.421875 12.765625 -31.140625 12.578125 -30.578125 Z M 7.609375 -13.28125 "/></g></g></g><g fill="#6e6949" fill-opacity="1"><g transform="translate(131.5607, 41.826815)"><g><path d="M 0.109375 -35.03125 L 3.1875 -35.03125 L 16.84375 -4.34375 C 17.0625 -3.851562 17.285156 -3.609375 17.515625 -3.609375 C 17.773438 -3.609375 17.984375 -3.890625 18.140625 -4.453125 L 21.578125 -16.390625 C 21.722656 -16.910156 21.773438 -17.472656 21.734375 -18.078125 C 21.703125 -18.679688 21.582031 -19.21875 21.375 -19.6875 L 14.5 -35.03125 L 17.578125 -35.03125 L 22.5625 -23.890625 C 22.769531 -23.421875 22.976562 -23.1875 23.1875 -23.1875 C 23.425781 -23.1875 23.613281 -23.445312 23.75 -23.96875 L 26.9375 -35.03125 L 30.015625 -35.03125 L 25.125 -21.125 C 24.957031 -20.632812 24.878906 -20.082031 24.890625 -19.46875 C 24.898438 -18.863281 25.007812 -18.328125 25.21875 -17.859375 L 31.25 -4.34375 C 31.457031 -3.851562 31.675781 -3.609375 31.90625 -3.609375 C 32.164062 -3.609375 32.378906 -3.890625 32.546875 -4.453125 L 41.34375 -35.03125 L 44.421875 -35.03125 L 32.015625 0 L 30.125 0 L 23.859375 -14.015625 C 23.648438 -14.484375 23.414062 -14.71875 23.15625 -14.71875 C 22.945312 -14.71875 22.75 -14.472656 22.5625 -13.984375 L 17.625 0 L 15.734375 0 Z M 0.109375 -35.03125 "/></g></g></g><g fill="#6e6949" fill-opacity="1"><g transform="translate(176.659872, 41.826815)"><g><path d="M 3.78125 0 L 0.703125 0 L 12.640625 -33.390625 L 11.90625 -35.03125 L 15 -35.03125 L 30.625 0 L 27.53125 0 L 24.984375 -5.703125 C 24.554688 -6.660156 23.929688 -7.523438 23.109375 -8.296875 C 22.296875 -9.066406 21.375 -9.71875 20.34375 -10.25 C 19.320312 -10.789062 18.257812 -11.203125 17.15625 -11.484375 C 16.0625 -11.765625 15.023438 -11.90625 14.046875 -11.90625 C 12.921875 -11.90625 11.816406 -11.726562 10.734375 -11.375 C 9.648438 -11.03125 8.59375 -10.484375 7.5625 -9.734375 C 7.1875 -9.453125 6.8125 -8.988281 6.4375 -8.34375 C 6.070312 -7.707031 5.804688 -7.109375 5.640625 -6.546875 Z M 7.609375 -13.28125 C 7.441406 -12.644531 7.5 -12.328125 7.78125 -12.328125 C 7.914062 -12.328125 8.171875 -12.421875 8.546875 -12.609375 C 9.242188 -13.003906 9.96875 -13.289062 10.71875 -13.46875 C 11.46875 -13.644531 12.226562 -13.734375 13 -13.734375 C 14.65625 -13.734375 16.285156 -13.378906 17.890625 -12.671875 C 19.503906 -11.972656 20.976562 -11.078125 22.3125 -9.984375 C 22.707031 -9.660156 22.957031 -9.535156 23.0625 -9.609375 C 23.164062 -9.691406 23.113281 -9.96875 22.90625 -10.4375 L 13.875 -30.6875 C 13.664062 -31.175781 13.441406 -31.421875 13.203125 -31.421875 C 12.972656 -31.421875 12.765625 -31.140625 12.578125 -30.578125 Z M 7.609375 -13.28125 "/></g></g></g><g fill="#6e6949" fill-opacity="1"><g transform="translate(207.36793, 41.826815)"><g><path d="M 12.15625 -17.765625 L 0.109375 -35.03125 L 3.078125 -35.03125 L 14.609375 -18.28125 C 14.890625 -17.863281 15.171875 -17.65625 15.453125 -17.65625 C 15.796875 -17.65625 16.097656 -17.890625 16.359375 -18.359375 L 25.890625 -35.03125 L 28.90625 -35.03125 L 16.84375 -17.765625 C 16.539062 -17.335938 16.304688 -16.828125 16.140625 -16.234375 C 15.984375 -15.640625 15.90625 -15.070312 15.90625 -14.53125 L 15.90625 0 L 13.109375 0 L 13.109375 -14.53125 C 13.109375 -15.070312 13.023438 -15.640625 12.859375 -16.234375 C 12.691406 -16.828125 12.457031 -17.335938 12.15625 -17.765625 Z M 12.15625 -17.765625 "/></g></g></g><g clip-path="url(#1647e86805)"><path fill="#000000" d="M 33.734375 17.292969 L 21.664062 0.0117188 L 2.449219 27.527344 L 10.824219 36.019531 C 10.917969 36.121094 11.015625 36.21875 11.109375 36.308594 L 21.664062 47.011719 L 40.882812 27.527344 L 33.765625 17.332031 L 33.769531 17.324219 C 33.757812 17.3125 33.746094 17.304688 33.734375 17.292969 Z M 32.027344 16.226562 C 31.324219 15.960938 30.542969 15.832031 29.703125 15.847656 C 27.335938 15.898438 23.414062 17.121094 18.085938 22.613281 C 17.585938 22.109375 16.515625 21.148438 15.015625 20.480469 C 13.382812 19.753906 10.980469 19.277344 8.230469 20.628906 L 21.664062 1.390625 Z M 7.171875 22.238281 C 9.625 20.457031 12.140625 20.117188 14.652344 21.226562 C 16.046875 21.84375 17.0625 22.761719 17.507812 23.210938 C 14.582031 26.179688 11.308594 27.746094 7.773438 27.878906 C 5.800781 27.953125 4.277344 27.535156 3.578125 27.292969 L 7.140625 22.191406 Z M 11.339844 35.355469 L 11.308594 35.386719 L 10.121094 34.179688 C 10.476562 34.246094 10.894531 34.292969 11.371094 34.292969 C 12.945312 34.292969 15.496094 33.769531 18.714844 31.285156 C 21.152344 29.402344 27.28125 25.179688 31.527344 26.605469 C 33.433594 27.246094 34.78125 28.976562 35.535156 31.753906 L 35.625 31.730469 L 31.230469 36.191406 C 31.277344 34.792969 30.890625 33.765625 30.066406 33.125 C 27.976562 31.511719 23.714844 32.933594 20.511719 34.414062 C 14.480469 37.195312 12.863281 37.082031 11.339844 35.355469 Z M 13.28125 37.382812 C 13.46875 37.410156 13.664062 37.421875 13.867188 37.421875 C 14.011719 37.421875 14.160156 37.417969 14.308594 37.40625 C 15.746094 37.289062 17.703125 36.621094 20.859375 35.164062 C 25.09375 33.210938 28.183594 32.71875 29.558594 33.78125 C 30.324219 34.375 30.570312 35.5 30.296875 37.132812 L 21.664062 45.886719 Z M 39.859375 27.441406 L 36.21875 31.132812 C 35.363281 28.304688 33.875 26.519531 31.792969 25.820312 C 27.332031 24.324219 21.367188 28.191406 18.210938 30.628906 C 15.210938 32.945312 12.871094 33.449219 11.4375 33.464844 C 9.902344 33.480469 9.054688 32.953125 9.042969 32.945312 L 8.988281 33.03125 L 4.414062 28.394531 C 5.164062 28.566406 6.152344 28.714844 7.308594 28.714844 C 7.457031 28.714844 7.605469 28.714844 7.757812 28.707031 C 10.429688 28.617188 14.445312 27.640625 18.378906 23.503906 C 20.601562 21.167969 22.761719 19.398438 24.808594 18.242188 C 26.585938 17.234375 28.238281 16.707031 29.71875 16.675781 C 31.121094 16.648438 32.324219 17.078125 33.195312 17.921875 L 33.203125 17.914062 Z M 39.859375 27.441406 " fill-opacity="1" fill-rule="nonzero"/></g></svg>