<svg version="1.1" id="Layer_1" xmlns="http://www.w3.org/2000/svg" xmlns:xlink="http://www.w3.org/1999/xlink" x="0px" y="0px"
	 width="100%" viewBox="0 0 800 254" enable-background="new 0 0 800 254" xml:space="preserve">

<path fill="#050505" opacity="1.000000" stroke="none" 
	d="
M97.531342,1.000000 
	C97.875473,3.477963 97.645805,5.955800 97.642815,8.433910 
	C97.615105,31.415813 97.397636,54.401001 97.722794,77.378334 
	C97.885773,88.894974 99.102562,100.350357 103.306656,111.321999 
	C105.856216,117.975716 109.940231,123.255867 115.114708,128.009109 
	C116.557793,129.334717 117.483696,131.932816 117.518326,133.966385 
	C117.733162,146.581421 117.626427,159.201950 117.626427,172.257492 
	C123.595963,172.257492 129.186691,172.257492 135.375000,172.257492 
	C135.375000,193.048584 135.375000,213.414093 135.375000,234.284149 
	C144.197800,234.284149 152.431519,234.284149 161.236542,234.284149 
	C161.236542,241.217133 161.236542,247.653030 161.118271,254.544464 
	C107.666641,255.000000 54.333282,255.000000 1.000000,255.000000 
	C1.000000,248.238815 1.000000,241.588333 1.443963,234.631348 
	C9.972093,234.324875 18.056259,234.324875 26.548443,234.324875 
	C26.548443,213.424072 26.548443,193.180191 26.548443,172.328003 
	C32.670063,172.328003 38.383869,172.328003 44.367561,172.328003 
	C44.367561,160.081116 44.562798,148.443634 44.260834,136.819077 
	C44.156254,132.793121 45.607738,130.188705 48.110928,127.211464 
	C51.990498,122.597183 55.633530,117.551483 58.227009,112.137840 
	C63.300186,101.548080 64.028862,89.854454 64.243042,78.375031 
	C64.665466,55.735054 64.381721,33.081619 64.351234,10.433800 
	C64.347000,7.289048 64.122520,4.144593 64.000000,1.000000 
	C75.020897,1.000000 86.041786,1.000000 97.531342,1.000000 
M79.590591,189.630890 
	C74.119751,191.127594 68.261787,191.831955 63.254898,194.278244 
	C51.073006,200.230179 45.552872,222.216583 48.294521,234.074493 
	C70.869881,234.074493 93.445236,234.074493 116.004105,234.074493 
	C117.152832,210.061508 105.745544,188.749832 79.590591,189.630890 
z"/>
<path fill="#070707" opacity="1.000000" stroke="none" 
	d="
M324.727509,217.244690 
	C322.094452,207.237381 319.364563,197.665421 317.055573,187.992966 
	C316.495728,185.647705 314.004944,182.051178 319.252808,180.970551 
	C323.945526,180.004242 325.407959,182.518661 326.217041,186.360733 
	C327.787415,193.817947 329.462219,201.253189 331.381683,210.011230 
	C332.516571,207.501953 333.358215,206.169342 333.735443,204.716156 
	C335.442749,198.139023 337.309906,191.580963 338.528351,184.908112 
	C339.212311,181.162537 341.701172,180.981934 344.290314,180.800980 
	C347.014282,180.610626 348.841095,181.674927 349.551575,184.828140 
	C351.437988,193.200272 353.704437,201.486755 356.938812,209.924820 
	C358.524384,203.171921 360.118927,196.421097 361.689880,189.664810 
	C362.139008,187.733093 361.930664,185.250580 363.082520,183.981873 
	C364.491302,182.430176 366.993286,181.142990 369.059998,181.085358 
	C372.249176,180.996414 371.824554,183.759369 371.262085,185.906265 
	C368.321808,197.129272 365.217133,208.310196 362.385223,219.560043 
	C361.451416,223.269623 358.717468,222.354736 356.449402,222.315582 
	C353.887146,222.271317 350.653046,223.591415 349.653564,219.319183 
	C348.041046,212.426392 346.118317,205.606201 343.422333,198.549805 
	C342.739807,200.708389 341.956116,202.841202 341.397766,205.031448 
	C340.497070,208.564636 339.789154,212.146545 338.920319,215.688370 
	C337.277527,222.385300 335.212036,223.850952 328.435120,222.143463 
	C326.935791,221.765717 325.987457,219.200882 324.727509,217.244690 
z"/>
<path fill="#060606" opacity="1.000000" stroke="none" 
	d="
M735.829590,183.276855 
	C737.951294,192.330872 739.913452,200.996201 741.875671,209.661530 
	C742.272583,209.698853 742.669495,209.736191 743.066406,209.773514 
	C744.956482,201.903641 747.090637,194.081467 748.641479,186.145294 
	C749.516541,181.667007 751.945312,180.041580 755.867493,181.231079 
	C757.599304,181.756271 759.596924,183.806610 760.102783,185.560089 
	C762.393982,193.502563 764.195801,201.586273 767.298340,209.777969 
	C769.214233,201.654907 771.259583,193.559250 772.987488,185.396393 
	C773.765259,181.721832 775.668274,180.398270 779.238831,180.910431 
	C781.714600,181.265533 782.763977,182.444244 782.089111,184.983810 
	C779.069519,196.346680 776.063171,207.713104 773.081238,219.085922 
	C772.001770,223.203217 768.688965,222.302979 765.801514,222.448242 
	C762.928101,222.592773 760.606812,222.142075 759.794189,218.734238 
	C758.150024,211.839233 756.306396,204.991837 754.141846,196.553162 
	C752.277466,204.096725 750.601013,210.204926 749.298462,216.391861 
	C748.457764,220.385269 747.086792,222.568604 742.298767,222.649231 
	C737.313293,222.733200 735.693176,220.576065 734.699707,216.310867 
	C732.447632,206.642365 729.759705,197.075165 727.525269,187.402924 
	C727.081909,185.483505 727.874634,183.278503 728.097412,181.205200 
	C730.621643,181.766205 733.145813,182.327209 735.829590,183.276855 
z"/>
<path fill="#0B0B0B" opacity="1.000000" stroke="none" 
	d="
M656.342529,186.482635 
	C657.402344,184.456192 658.280212,181.723404 659.555786,181.523148 
	C663.190308,180.952530 667.383484,180.268677 669.713745,184.580917 
	C672.950439,190.570786 676.126038,196.593674 679.330261,202.601105 
	C679.942444,203.748886 680.565857,204.890640 682.273682,205.980774 
	C682.273682,202.199249 682.273621,198.417725 682.273621,194.636200 
	C682.273621,192.306122 682.272705,189.976044 682.273865,187.645966 
	C682.277283,180.752945 682.771912,180.369553 690.280579,181.957870 
	C690.280579,194.437515 690.340515,207.038284 690.154541,219.635422 
	C690.141296,220.536987 688.404114,222.055664 687.338745,222.180664 
	C683.922180,222.581589 680.188599,223.127289 678.081299,219.247711 
	C675.227722,213.994141 672.451599,208.698471 669.646118,203.418839 
	C668.280762,200.849396 666.924011,198.275375 664.589111,195.886749 
	C664.589111,204.510712 664.589111,213.134674 664.589111,222.088791 
	C661.610046,222.088791 659.231812,222.088791 656.342163,222.088791 
	C656.342163,210.146713 656.342163,198.539719 656.342529,186.482635 
z"/>
<path fill="#070707" opacity="1.000000" stroke="none" 
	d="
M514.380615,185.627960 
	C518.194275,192.809113 521.821716,199.667358 525.449158,206.525589 
	C525.769958,206.501251 526.090820,206.476913 526.411682,206.452591 
	C526.411682,199.650574 526.678589,192.834259 526.315063,186.051727 
	C526.084106,181.742188 528.030090,180.585846 531.580505,181.360092 
	C532.696106,181.603363 534.293213,183.298569 534.311218,184.352417 
	C534.504211,195.664169 534.514160,206.982269 534.301514,218.293518 
	C534.276306,219.635513 532.787415,221.915588 531.699768,222.096741 
	C527.961670,222.719452 524.017334,223.031921 521.775940,218.648727 
	C518.600342,212.438782 515.273376,206.306305 512.012939,200.139725 
	C511.243713,198.684860 510.481995,197.226028 508.892029,195.776276 
	C508.892029,204.354782 508.892029,212.933273 508.892029,221.969818 
	C505.848938,221.969818 503.489197,221.969818 500.543671,221.969818 
	C500.543671,209.494431 500.481689,197.071625 500.651917,184.652008 
	C500.666809,183.564301 502.224945,181.568024 503.032990,181.584930 
	C506.208527,181.651321 509.399536,182.225723 512.515991,182.920227 
	C513.217712,183.076645 513.642212,184.477203 514.380615,185.627960 
z"/>
<path fill="#090909" opacity="1.000000" stroke="none" 
	d="
M211.274384,119.003708 
	C211.274368,125.657143 211.494171,131.823776 211.153870,137.959335 
	C211.036438,140.076401 209.940109,143.510620 208.568466,143.919464 
	C205.008591,144.980637 200.976913,145.167068 198.700165,140.731903 
	C195.066513,133.653427 191.264206,126.661499 187.526535,119.636528 
	C187.146973,118.923157 186.721863,118.234016 185.511414,116.135460 
	C185.511414,126.245132 185.511414,134.894897 185.511414,143.974869 
	C182.511810,143.974869 180.141724,143.974869 177.237732,143.974869 
	C177.237732,131.372070 177.162094,118.952431 177.369537,106.537529 
	C177.387756,105.448090 179.210571,103.535904 180.282303,103.472229 
	C183.920135,103.256096 188.076447,102.059372 190.414795,106.557022 
	C193.859756,113.183151 197.392487,119.763641 200.889099,126.362907 
	C201.329468,127.194046 201.777512,128.021118 203.149643,128.744278 
	C203.149643,122.256683 203.146744,115.769089 203.150467,109.281502 
	C203.154205,102.779724 204.206528,102.078957 211.274368,104.201035 
	C211.274368,108.894768 211.274368,113.699738 211.274384,119.003708 
z"/>
<path fill="#0A0A0A" opacity="1.000000" stroke="none" 
	d="
M261.240173,201.955856 
	C260.967407,203.220749 260.786835,204.405090 261.207306,205.310211 
	C263.626099,210.517014 266.187225,215.657669 268.692963,220.806046 
	C262.038727,224.073456 259.375214,223.113281 256.915894,217.100555 
	C256.038025,214.954330 255.094421,212.834671 254.237244,210.680420 
	C252.902130,207.325058 250.648849,205.569107 246.391205,206.435852 
	C246.391205,211.372253 246.391205,216.455765 246.391205,221.990189 
	C243.341064,221.990189 240.783844,221.990189 237.438629,221.990189 
	C237.438629,219.283218 237.438599,216.526718 237.438644,213.770233 
	C237.438751,204.622177 237.592545,195.470352 237.367386,186.327850 
	C237.270050,182.376068 238.714279,180.965454 242.558136,181.220993 
	C246.534729,181.485352 250.556442,181.158096 254.519333,181.518890 
	C259.139923,181.939590 263.440247,183.364090 265.197968,188.334625 
	C267.046753,193.562683 265.911011,198.106491 261.240173,201.955856 
M251.871826,198.763657 
	C255.509933,197.921341 257.745819,195.536560 256.553070,191.979294 
	C254.878754,186.985855 250.427780,188.249222 246.443893,188.367722 
	C246.443893,191.970352 246.443893,195.206833 246.443893,198.795029 
	C248.132370,198.795029 249.590622,198.795029 251.871826,198.763657 
z"/>
<path fill="#090909" opacity="1.000000" stroke="none" 
	d="
M575.007080,199.776581 
	C575.330017,205.830994 575.551819,211.483505 575.452332,217.130325 
	C575.430298,218.377884 574.567871,220.330658 573.589905,220.731018 
	C562.697021,225.190353 545.039734,224.595688 541.326416,208.794388 
	C539.324463,200.275497 539.946533,191.671112 547.362366,185.468124 
	C554.898682,179.164322 563.580261,179.445114 572.298889,182.568008 
	C576.156311,183.949722 576.442688,185.684631 574.751160,190.807220 
	C570.252075,189.950668 565.812683,188.537064 561.330566,188.384781 
	C554.533936,188.153854 549.930237,193.590271 549.594604,201.202927 
	C549.252502,208.960602 553.709290,214.751923 560.565247,215.458847 
	C566.427124,216.063278 567.617432,214.041870 566.108826,205.443542 
	C564.223328,205.443542 562.129272,205.846954 560.329041,205.293961 
	C559.228943,204.956070 557.907898,203.140152 557.921570,202.002853 
	C557.934753,200.903763 559.509766,198.911362 560.437622,198.888474 
	C565.214905,198.770523 570.004761,199.160172 575.007080,199.776581 
z"/>
<path fill="#080808" opacity="1.000000" stroke="none" 
	d="
M633.482422,222.796356 
	C620.345947,224.542007 612.019836,218.268784 611.600342,205.652390 
	C611.413757,200.043793 612.276062,193.903824 614.525940,188.831741 
	C617.594971,181.912872 627.343750,179.114029 636.438232,180.979431 
	C644.071655,182.545135 648.580627,187.309555 649.501526,195.805557 
	C649.976074,200.183594 650.070496,204.835464 649.109192,209.085999 
	C647.338074,216.916779 642.198853,221.763397 633.482422,222.796356 
M638.214661,191.383545 
	C635.156189,187.483414 631.033752,187.551727 626.915405,188.755814 
	C622.918213,189.924454 621.225159,193.337509 620.946899,197.158875 
	C620.685730,200.745575 620.943176,204.397705 621.274719,207.993179 
	C621.735718,212.992599 625.206482,215.074158 629.705505,215.594727 
	C634.200989,216.114868 638.399353,213.342865 639.665649,208.973511 
	C641.325623,203.245941 641.388794,197.509750 638.214661,191.383545 
z"/>
<path fill="#060606" opacity="1.000000" stroke="none" 
	d="
M227.732025,47.881084 
	C227.735489,34.650555 231.644577,27.534836 241.238892,25.363985 
	C254.178268,22.436262 266.000000,26.709700 266.401672,42.923847 
	C266.543243,48.638813 266.437561,54.280239 263.079132,59.177380 
	C258.225098,66.255379 249.094147,68.862297 239.390518,66.178070 
	C232.302094,64.217262 228.545380,58.470734 227.732025,47.881084 
M251.346924,32.814522 
	C243.206131,31.171656 238.180237,34.013870 237.384048,40.994537 
	C237.028320,44.113300 236.969025,47.343647 237.359116,50.450027 
	C237.847443,54.338543 239.242874,58.573082 243.688156,58.887615 
	C247.119827,59.130424 251.571320,58.407627 254.023956,56.308456 
	C259.543579,51.584270 257.931885,37.637733 251.346924,32.814522 
z"/>
<path fill="#070707" opacity="1.000000" stroke="none" 
	d="
M215.294266,180.731735 
	C228.634109,182.104919 232.235153,193.110992 231.079010,204.895905 
	C229.365860,222.358765 214.497467,225.451721 203.083786,221.749130 
	C200.956512,221.059052 198.614243,219.811844 197.278046,218.109833 
	C190.779037,209.831558 190.932999,200.413040 194.382370,191.191925 
	C197.454071,182.980423 204.555389,180.375229 212.890869,180.645508 
	C213.555954,180.667068 214.220627,180.701050 215.294266,180.731735 
M217.178604,213.795090 
	C223.126801,208.429245 222.272385,201.676575 220.865372,194.920547 
	C219.816177,189.882660 216.289139,188.055298 211.358780,188.118240 
	C206.441376,188.181000 203.398605,190.856522 202.456207,195.240967 
	C201.674942,198.875671 201.569046,202.849258 202.107910,206.534683 
	C203.321701,214.836060 208.546600,217.414062 217.178604,213.795090 
z"/>
<path fill="#090909" opacity="1.000000" stroke="none" 
	d="
M447.891449,64.165962 
	C440.644287,64.955345 433.768738,65.732536 426.871460,66.086365 
	C426.036255,66.129211 424.324615,63.900558 424.303894,62.702457 
	C424.107971,51.374569 424.078033,40.039051 424.361511,28.714777 
	C424.390961,27.538296 426.675446,25.568815 428.055878,25.435066 
	C432.177185,25.035740 436.377411,25.220860 440.531586,25.451672 
	C445.078125,25.704287 449.278351,27.201164 450.937653,31.836939 
	C452.498169,36.196800 451.593323,40.379482 447.884613,43.583076 
	C456.297119,51.564842 456.394470,58.131897 447.891449,64.165962 
M440.393524,59.073166 
	C443.836334,58.115788 445.524475,55.945942 444.493225,52.387363 
	C443.486572,48.913696 438.769257,47.666718 433.491608,49.204250 
	C433.491608,52.497097 433.491608,55.756744 433.491608,59.280346 
	C435.718506,59.280346 437.674591,59.280346 440.393524,59.073166 
M441.062012,33.206810 
	C438.588318,32.777309 436.114655,32.347809 433.454254,31.885893 
	C433.454254,35.668201 433.454254,38.577423 433.454254,41.456238 
	C441.829712,42.277885 444.100433,40.061329 441.062012,33.206810 
z"/>
<path fill="#0B0B0B" opacity="1.000000" stroke="none" 
	d="
M459.717987,28.634953 
	C459.970459,23.968344 463.339783,24.816158 465.578766,25.208076 
	C466.830872,25.427254 468.576324,27.655584 468.636993,29.042557 
	C468.949768,36.193302 468.643311,43.368759 468.840363,50.527676 
	C468.995636,56.167149 472.203918,59.570805 476.799103,59.555519 
	C481.667053,59.539322 484.612854,56.333271 484.688629,50.589504 
	C484.795990,42.454674 484.715881,34.317371 484.715881,26.295015 
	C492.333435,23.709101 493.668121,24.572130 493.654083,31.812014 
	C493.641144,38.475552 493.673920,45.140480 493.548920,51.802212 
	C493.335541,63.171833 485.445435,67.988029 474.588806,66.928368 
	C463.768127,65.872231 459.969330,61.021805 459.742828,49.565361 
	C459.607819,42.737000 459.717804,35.903793 459.717987,28.634953 
z"/>
<path fill="#070707" opacity="1.000000" stroke="none" 
	d="
M348.561096,41.587944 
	C348.426788,45.664261 348.734436,49.417313 347.971283,52.938282 
	C346.270355,60.786118 339.906921,65.567276 330.759033,66.212860 
	C326.778839,66.493759 322.757080,66.136627 318.764679,66.310310 
	C315.765411,66.440788 314.596649,65.350647 314.628326,62.286316 
	C314.742035,51.287910 314.579224,40.285789 314.794159,29.290413 
	C314.820099,27.963728 316.523224,25.535652 317.434570,25.542505 
	C323.886597,25.591028 330.458435,25.495945 336.752228,26.700069 
	C344.210480,28.126968 347.402588,34.040649 348.561096,41.587944 
M339.547119,42.240200 
	C336.868103,33.808208 332.986786,31.436386 323.744843,32.685707 
	C323.744843,41.366035 323.744843,50.060974 323.744843,58.696766 
	C333.194366,60.136841 338.268555,56.812527 339.513031,48.518066 
	C339.781281,46.730270 339.623260,44.878529 339.547119,42.240200 
z"/>
<path fill="#090909" opacity="1.000000" stroke="none" 
	d="
M222.440369,38.455341 
	C220.665680,41.853382 218.951553,44.862457 217.262390,47.827698 
	C219.723831,52.983467 222.580719,58.967587 225.468750,65.016930 
	C217.900391,67.901886 216.037354,67.071419 213.469925,60.591599 
	C212.554535,58.281349 211.817108,55.759476 210.330078,53.856472 
	C208.837173,51.945972 206.511536,50.686169 204.550858,49.141193 
	C204.125656,49.495621 203.700439,49.850044 203.275238,50.204472 
	C203.275238,53.320690 203.275620,56.436909 203.275177,59.553127 
	C203.274109,67.016655 202.649765,67.471931 194.225113,65.632858 
	C194.225113,53.347088 194.136917,40.931694 194.377762,28.522688 
	C194.399063,27.425022 196.512466,25.524578 197.748383,25.444136 
	C202.374496,25.143038 207.066254,25.156643 211.684433,25.582909 
	C219.474747,26.301964 222.607193,30.126139 222.440369,38.455341 
M213.064926,35.337879 
	C210.776123,31.262680 207.122879,32.156063 203.440186,32.393612 
	C203.440186,35.969318 203.440186,39.207943 203.440186,42.416149 
	C211.289291,43.281342 213.133102,42.056049 213.064926,35.337879 
z"/>
<path fill="#090909" opacity="1.000000" stroke="none" 
	d="
M472.697174,222.360565 
	C470.491608,222.333786 468.709534,222.254730 466.348724,222.150009 
	C466.348724,218.982330 466.348694,216.197144 466.348694,213.411942 
	C466.348694,210.783920 466.348724,208.155884 466.348724,205.192108 
	C461.650421,205.192108 457.393494,205.192108 452.333954,205.192108 
	C452.080444,210.560547 451.819244,216.091141 451.537781,222.051331 
	C448.736298,222.051331 446.016022,222.051331 442.733490,222.051331 
	C442.733490,209.244293 442.595490,196.788208 442.951508,184.346283 
	C442.986298,183.130814 446.011536,181.211288 447.746887,181.095932 
	C449.025238,181.010971 451.377777,183.163239 451.653870,184.621185 
	C452.384766,188.480682 452.248077,192.504501 452.474487,196.801910 
	C456.966278,196.801910 461.338989,196.801910 466.403137,196.801910 
	C466.403137,193.725143 466.402344,190.789719 466.403320,187.854279 
	C466.405731,180.556808 466.965942,180.147385 475.275269,182.007812 
	C475.275269,189.094818 475.275360,196.351715 475.275238,203.608627 
	C475.275177,208.603119 475.417175,213.604477 475.176178,218.587326 
	C475.114746,219.857819 473.838654,221.069550 472.697174,222.360565 
z"/>
<path fill="#080808" opacity="1.000000" stroke="none" 
	d="
M272.727661,41.995541 
	C272.727631,36.350029 272.727631,31.202789 272.727631,26.176777 
	C280.585907,23.824293 281.647278,24.559475 281.648438,31.985580 
	C281.649261,37.485134 281.618713,42.984898 281.656342,48.484196 
	C281.706696,55.851170 284.368622,59.541695 289.591339,59.589977 
	C295.023529,59.640190 297.644104,56.172352 297.687469,48.721355 
	C297.730988,41.239708 297.697021,33.757607 297.697021,26.374401 
	C304.995453,23.585812 306.475983,24.534176 306.458496,31.790171 
	C306.442047,38.621952 306.590851,45.462273 306.300995,52.283283 
	C305.896820,61.793652 299.375305,67.406525 289.352325,67.265495 
	C278.971069,67.119423 273.137878,61.793091 272.748230,51.992218 
	C272.622528,48.830807 272.727966,45.660206 272.727661,41.995541 
z"/>
<path fill="#040404" opacity="1.000000" stroke="none" 
	d="
M398.097290,190.914154 
	C401.674713,201.282913 405.149506,211.270508 408.621582,221.250305 
	C401.582214,223.766983 399.593353,223.136002 397.578857,217.000305 
	C396.544983,213.851227 394.993805,212.781555 391.887024,213.224380 
	C390.421539,213.433243 388.873322,213.446747 387.411743,213.224930 
	C383.157715,212.579330 380.564484,213.778244 379.872711,218.492905 
	C379.052246,224.084808 374.676666,222.062088 370.450043,222.343765 
	C370.966644,219.744492 371.151947,217.533615 371.853149,215.500687 
	C375.304810,205.493301 379.052826,195.585419 382.349915,185.528870 
	C383.556305,181.849167 385.545288,180.546265 389.253632,180.676056 
	C392.705048,180.796829 395.455750,181.344940 396.245728,185.356552 
	C396.594574,187.128143 397.397766,188.810257 398.097290,190.914154 
M385.647308,200.117233 
	C385.058685,201.925812 384.470062,203.734406 383.863434,205.598358 
	C387.420929,205.598358 390.477295,205.598358 393.896576,205.598358 
	C392.423706,201.376755 391.080566,197.527023 389.737427,193.677307 
	C389.226410,193.712143 388.715424,193.746979 388.204407,193.781799 
	C387.455536,195.649033 386.706635,197.516266 385.647308,200.117233 
z"/>
<path fill="#080808" opacity="1.000000" stroke="none" 
	d="
M160.161133,48.997372 
	C160.162430,42.351471 160.270432,36.202454 160.122330,30.059603 
	C160.041962,26.726061 161.180283,25.069128 164.697144,25.248323 
	C168.673645,25.450939 172.684036,25.217270 176.636719,25.608057 
	C183.622513,26.298717 187.926743,30.403330 188.298309,36.263096 
	C188.812073,44.365856 185.546600,49.567558 178.487061,51.388538 
	C175.653915,52.119339 172.675507,52.287029 169.273148,52.782372 
	C169.273148,54.822041 169.273315,56.934071 169.273102,59.046101 
	C169.272308,67.069626 168.764389,67.470131 160.161102,65.645073 
	C160.161102,60.351898 160.161102,54.924362 160.161133,48.997372 
M178.524353,35.318321 
	C176.198395,31.968224 172.995148,31.842766 169.504257,32.524357 
	C169.504257,36.909809 169.504257,40.955254 169.504257,44.956608 
	C177.108093,45.771141 178.880035,44.010021 178.524353,35.318321 
z"/>
<path fill="#080808" opacity="1.000000" stroke="none" 
	d="
M167.493134,222.192688 
	C164.961975,222.291260 162.846619,222.291260 160.197449,222.291260 
	C160.197449,209.348129 160.108231,196.926285 160.352325,184.511002 
	C160.373856,183.416077 162.507309,181.545853 163.774612,181.442459 
	C167.896423,181.106216 172.092545,181.182632 176.221558,181.542206 
	C183.560303,182.181274 187.948685,186.278183 188.302689,192.361542 
	C188.787125,200.685822 185.425507,205.710709 177.885147,207.537949 
	C175.332291,208.156586 172.654297,208.258759 169.988312,208.602783 
	C169.310883,212.998093 168.609909,217.546112 167.493134,222.192688 
M178.109894,198.320236 
	C180.842911,191.077606 176.715225,186.762009 169.419495,188.702072 
	C169.419495,192.708527 169.419495,196.765427 169.419495,202.178604 
	C172.580811,200.970947 175.152634,199.988480 178.109894,198.320236 
z"/>
<path fill="#090909" opacity="1.000000" stroke="none" 
	d="
M411.548645,196.062408 
	C410.349823,189.712418 412.239899,184.857773 416.651031,182.287155 
	C420.697601,179.928970 430.498016,179.795166 433.343414,182.737274 
	C434.843689,184.288498 434.975800,187.162918 435.725647,189.439911 
	C435.282043,189.719711 434.838440,189.999527 434.394867,190.279327 
	C431.954834,189.491623 429.528107,188.143066 427.070770,188.084793 
	C424.910645,188.033554 422.716248,189.426941 420.536987,190.182281 
	C421.679962,192.094009 422.543274,194.277832 424.054596,195.831070 
	C425.256531,197.066269 427.259216,197.513565 428.891327,198.340393 
	C436.168610,202.027191 438.784424,206.943069 436.978790,213.510254 
	C435.360107,219.397446 428.617493,223.746063 421.746399,223.229401 
	C420.097351,223.105408 418.472198,222.653214 416.838165,222.341064 
	C410.761353,221.180283 409.611572,219.296066 411.253265,212.327820 
	C412.942413,213.047379 414.483215,213.937881 416.142944,214.354935 
	C418.525055,214.953415 421.064850,215.736526 423.401031,215.423492 
	C424.992981,215.210205 427.189178,213.475418 427.567505,212.018936 
	C427.910522,210.698196 426.509003,208.443375 425.242188,207.308502 
	C423.696716,205.923950 421.229004,205.589066 419.624542,204.245575 
	C416.784485,201.867355 414.295166,199.070297 411.548645,196.062408 
z"/>
<path fill="#0B0B0B" opacity="1.000000" stroke="none" 
	d="
M289.282196,201.998718 
	C289.282196,206.827515 289.282349,211.155579 289.282166,215.483643 
	C289.281860,223.101700 288.911285,223.380661 280.101593,221.696777 
	C280.101593,210.974030 280.101593,200.096130 280.101593,188.593918 
	C276.923981,188.593918 274.402405,188.952103 272.064911,188.451263 
	C270.788666,188.177826 268.867584,186.373993 268.944946,185.395340 
	C269.058746,183.956284 270.661072,181.483139 271.695770,181.448669 
	C280.978790,181.139465 290.276459,181.268188 299.935455,181.268188 
	C299.935455,183.755432 299.935455,185.807007 299.935455,188.323090 
	C296.536957,188.514359 293.128326,188.706207 289.282196,188.922684 
	C289.282196,193.270432 289.282196,197.384216 289.282196,201.998718 
z"/>
<path fill="#090909" opacity="1.000000" stroke="none" 
	d="
M380.243011,25.230453 
	C383.443970,30.315634 386.260712,35.263412 389.391541,40.762928 
	C390.982544,37.234024 392.599274,33.781055 394.104187,30.280018 
	C396.593842,24.488207 398.680359,23.630411 405.332977,26.189390 
	C401.214996,39.250912 389.278503,50.048439 394.038635,66.000977 
	C390.503967,66.000977 387.812286,66.000977 384.083221,66.000977 
	C387.911804,50.579338 377.536285,39.344093 372.055603,25.505436 
	C375.165100,25.341105 377.511963,25.217079 380.243011,25.230453 
z"/>
<path fill="#0C0C0C" opacity="1.000000" stroke="none" 
	d="
M557.960327,33.130413 
	C557.580078,44.241661 557.580078,55.031395 557.580078,66.137352 
	C554.355713,66.137352 551.774475,66.137352 548.648560,66.137352 
	C548.648560,55.063744 548.648560,44.151634 548.648560,32.599945 
	C545.847961,32.599945 543.569702,32.483780 541.308594,32.630527 
	C538.715698,32.798798 537.224670,32.150982 537.190552,29.152643 
	C537.155701,26.088133 538.379028,25.134844 541.380798,25.200068 
	C549.210205,25.370186 557.047729,25.358372 564.877747,25.203474 
	C567.734314,25.146965 568.719177,26.238930 568.742004,28.965279 
	C568.765564,31.778528 567.603699,32.847763 564.827209,32.671932 
	C562.676514,32.535736 560.503662,32.750278 557.960327,33.130413 
z"/>
<path fill="#111111" opacity="1.000000" stroke="none" 
	d="
M590.306030,211.930984 
	C590.304382,203.990646 590.304382,196.538345 590.304382,188.618866 
	C587.549683,188.618866 585.254089,188.487076 582.980103,188.652496 
	C580.189026,188.855560 579.070801,187.770035 579.093201,184.945160 
	C579.115173,182.177933 580.143250,181.142715 582.966614,181.192307 
	C590.960510,181.332733 598.960876,181.351852 606.953613,181.183014 
	C609.993713,181.118790 610.632385,182.572449 610.621643,185.119843 
	C610.611389,187.552551 609.783325,188.852646 607.100464,188.680130 
	C604.652527,188.522751 602.186523,188.646774 599.343994,188.646774 
	C599.343994,199.958694 599.343994,210.722504 599.343994,221.977814 
	C596.284973,221.977814 593.607422,221.977814 590.307678,221.977814 
	C590.307678,218.657730 590.307678,215.538391 590.306030,211.930984 
z"/>
<path fill="#090909" opacity="1.000000" stroke="none" 
	d="
M518.724731,38.014034 
	C518.724731,33.712746 518.724731,29.908827 518.724731,26.223864 
	C526.460144,23.764381 527.679993,24.572264 527.692749,31.877455 
	C527.708130,40.654587 527.696411,49.431759 527.696411,58.673359 
	C532.413940,58.673359 536.662781,58.673359 541.273560,58.673359 
	C541.273560,61.373203 541.273560,63.601067 541.273560,66.287331 
	C534.833862,66.287331 528.726990,66.263229 522.620361,66.297646 
	C519.628601,66.314507 518.620422,64.893333 518.675415,61.951576 
	C518.821411,54.140610 518.724792,46.325104 518.724731,38.014034 
z"/>
<path fill="#080808" opacity="1.000000" stroke="none" 
	d="
M363.776733,37.041550 
	C363.776733,44.458672 363.776733,51.382172 363.776733,58.727646 
	C366.963257,58.727646 369.583344,58.724106 372.203461,58.728359 
	C378.131073,58.737984 378.756104,59.697319 376.798859,66.266121 
	C370.775665,66.266121 364.628601,66.509544 358.529388,66.077599 
	C357.176239,65.981766 354.931091,63.528999 354.896515,62.117393 
	C354.604248,50.180546 354.729706,38.233490 354.729706,26.414986 
	C362.267303,23.351194 363.775574,24.346424 363.776733,32.062325 
	C363.776947,33.557526 363.776733,35.052727 363.776733,37.041550 
z"/>
<path fill="#0E0E0E" opacity="1.000000" stroke="none" 
	d="
M501.706360,44.999935 
	C501.706360,38.390697 501.706360,32.281033 501.706360,26.285599 
	C509.269806,23.691069 510.634705,24.571012 510.635559,31.734119 
	C510.636902,42.997456 510.635895,54.260796 510.635895,66.010910 
	C507.648926,66.010910 504.975220,66.010910 501.706329,66.010910 
	C501.706329,59.006618 501.706329,52.253063 501.706360,44.999935 
z"/>
<path fill="#0E0E0E" opacity="1.000000" stroke="none" 
	d="
M492.293640,193.047668 
	C492.293640,202.852951 492.293640,212.165726 492.293640,222.069656 
	C489.408142,222.209869 486.845001,222.334412 483.395599,222.502029 
	C483.395599,219.858078 483.395569,217.608795 483.395569,215.359512 
	C483.395569,206.359756 483.395233,197.359985 483.395660,188.360229 
	C483.396057,180.405685 483.674713,180.182877 492.293671,181.894150 
	C492.293671,185.351318 492.293671,188.953232 492.293640,193.047668 
z"/>
<path fill="#090909" opacity="1.000000" stroke="none" 
	d="
M169.274384,111.116760 
	C169.274368,120.229012 169.274826,128.855286 169.274246,137.481552 
	C169.273743,144.996704 168.730881,145.404312 160.156494,143.700317 
	C160.156494,135.456100 160.156479,127.062332 160.156494,118.668564 
	C160.156494,115.018990 160.418015,111.345184 160.082764,107.726669 
	C159.749420,104.128647 161.480682,102.768265 164.577499,102.848213 
	C167.459976,102.922646 169.832779,103.937675 169.295349,107.647865 
	C169.154129,108.622734 169.274261,109.635445 169.274384,111.116760 
z"/>
<path fill="#020202" opacity="1.000000" stroke="none" 
	d="
M787.528748,192.026215 
	C787.528748,190.366394 787.528503,189.202148 787.528809,188.037903 
	C787.531006,180.509171 787.861084,180.253296 795.899658,181.895554 
	C795.899658,195.036041 795.899658,208.259476 795.899658,221.960907 
	C793.478516,221.960907 790.805664,221.960907 787.528748,221.960907 
	C787.528748,212.047195 787.528748,202.284500 787.528748,192.026215 
z"/>
<path fill="#090909" opacity="1.000000" stroke="none" 
	d="
M702.136597,229.159210 
	C699.802368,230.284225 697.674561,231.108383 695.121216,232.097382 
	C696.547729,225.640884 697.414246,220.177277 699.144714,215.002579 
	C699.561890,213.755127 702.842590,212.939606 704.801147,212.949799 
	C705.816345,212.955078 707.916077,215.570480 707.645630,216.373169 
	C706.206055,220.645416 704.171570,224.717209 702.136597,229.159210 
z"/>
<path fill="#E3E3E3" opacity="1.000000" stroke="none" 
	d="
M251.460358,198.779343 
	C249.590622,198.795029 248.132370,198.795029 246.443893,198.795029 
	C246.443893,195.206833 246.443893,191.970352 246.443893,188.367722 
	C250.427780,188.249222 254.878754,186.985855 256.553070,191.979294 
	C257.745819,195.536560 255.509933,197.921341 251.460358,198.779343 
z"/>

<path fill="#F6F6F6" opacity="1.000000" stroke="none" 
	d="
M251.715088,32.960495 
	C257.931885,37.637733 259.543579,51.584270 254.023956,56.308456 
	C251.571320,58.407627 247.119827,59.130424 243.688156,58.887615 
	C239.242874,58.573082 237.847443,54.338543 237.359116,50.450027 
	C236.969025,47.343647 237.028320,44.113300 237.384048,40.994537 
	C238.180237,34.013870 243.206131,31.171656 251.715088,32.960495 
z"/>

<path fill="#EAEAEA" opacity="1.000000" stroke="none" 
	d="
M440.012085,59.176758 
	C437.674591,59.280346 435.718506,59.280346 433.491608,59.280346 
	C433.491608,55.756744 433.491608,52.497097 433.491608,49.204250 
	C438.769257,47.666718 443.486572,48.913696 444.493225,52.387363 
	C445.524475,55.945942 443.836334,58.115788 440.012085,59.176758 
z"/>
<path fill="#E3E3E3" opacity="1.000000" stroke="none" 
	d="
M441.354614,33.470829 
	C444.100433,40.061329 441.829712,42.277885 433.454254,41.456238 
	C433.454254,38.577423 433.454254,35.668201 433.454254,31.885893 
	C436.114655,32.347809 438.588318,32.777309 441.354614,33.470829 
z"/>
<path fill="#F1F1F1" opacity="1.000000" stroke="none" 
	d="
M339.604370,42.648224 
	C339.623260,44.878529 339.781281,46.730270 339.513031,48.518066 
	C338.268555,56.812527 333.194366,60.136841 323.744843,58.696766 
	C323.744843,50.060974 323.744843,41.366035 323.744843,32.685707 
	C332.986786,31.436386 336.868103,33.808208 339.604370,42.648224 
z"/>
<path fill="#E3E3E3" opacity="1.000000" stroke="none" 
	d="
M213.197327,35.685154 
	C213.133102,42.056049 211.289291,43.281342 203.440186,42.416149 
	C203.440186,39.207943 203.440186,35.969318 203.440186,32.393612 
	C207.122879,32.156063 210.776123,31.262680 213.197327,35.685154 
z"/>
<path fill="#E3E3E3" opacity="1.000000" stroke="none" 
	d="
M385.802551,199.750366 
	C386.706635,197.516266 387.455536,195.649033 388.204407,193.781799 
	C388.715424,193.746979 389.226410,193.712143 389.737427,193.677307 
	C391.080566,197.527023 392.423706,201.376755 393.896576,205.598358 
	C390.477295,205.598358 387.420929,205.598358 383.863434,205.598358 
	C384.470062,203.734406 385.058685,201.925812 385.802551,199.750366 
z"/>
<path fill="#EAEAEA" opacity="1.000000" stroke="none" 
	d="
M178.631378,35.707581 
	C178.880035,44.010021 177.108093,45.771141 169.504257,44.956608 
	C169.504257,40.955254 169.504257,36.909809 169.504257,32.524357 
	C172.995148,31.842766 176.198395,31.968224 178.631378,35.707581 
z"/>
<path fill="#EAEAEA" opacity="1.000000" stroke="none" 
	d="
M177.917175,198.663116 
	C175.152634,199.988480 172.580811,200.970947 169.419495,202.178604 
	C169.419495,196.765427 169.419495,192.708527 169.419495,188.702072 
	C176.715225,186.762009 180.842911,191.077606 177.917175,198.663116 
z"/>
</svg>