<svg version="1.1" id="Layer_1" xmlns="http://www.w3.org/2000/svg" xmlns:xlink="http://www.w3.org/1999/xlink" x="0px" y="0px"
	 width="100%" viewBox="0 0 800 254" enable-background="new 0 0 800 254" xml:space="preserve">
<path fill="#FFFFFF" opacity="1.000000" stroke="none" 
	d="
M97.531342,1.000000 
	C98.000000,25.832056 97.829315,50.665791 98.073555,75.495445 
	C98.191879,87.524200 99.406380,99.442894 103.884956,110.870377 
	C106.487495,117.511002 110.436859,122.854683 115.758003,127.490112 
	C117.096100,128.655762 117.877167,131.133606 117.904213,133.022888 
	C118.087547,145.828491 118.000000,158.637970 118.000000,171.845306 
	C123.965050,171.845306 129.713760,171.845306 135.852905,171.845306 
	C135.852905,192.646774 135.852905,213.054596 135.852905,233.860046 
	C144.318573,233.860046 152.395340,233.860046 161.000000,233.860046 
	C161.000000,240.855316 161.000000,247.459061 161.000000,254.531403 
	C107.666641,255.000000 54.333282,255.000000 1.000000,255.000000 
	C1.000000,248.238815 1.000000,241.588333 1.468654,234.468918 
	C9.864608,234.000000 17.791908,234.000000 26.077137,234.000000 
	C26.077137,213.113754 26.077137,192.729767 26.077137,171.960236 
	C32.170158,171.960236 37.912426,171.960236 44.000000,171.960236 
	C44.000000,159.134750 43.874630,146.693924 44.119362,134.260376 
	C44.161774,132.105652 45.480415,129.795746 46.710186,127.878639 
	C50.344166,122.213623 54.901913,117.043610 57.868111,111.069191 
	C63.168915,100.392456 63.712959,88.505440 63.884766,76.872490 
	C64.258209,51.586609 64.000000,26.291397 64.000000,1.000000 
	C75.020897,1.000000 86.041786,1.000000 97.531342,1.000000 
M49.952274,216.391785 
	C49.061916,222.095169 48.171558,227.798553 47.236176,233.790375 
	C70.849823,233.790375 93.248695,233.790375 116.961052,233.790375 
	C115.588013,227.250122 114.537155,221.098007 112.982780,215.075851 
	C109.599174,201.966751 101.875999,193.619995 87.947845,190.828674 
	C69.252815,187.082016 53.788818,197.209518 49.952274,216.391785 
z"/>
<path fill="#000000" opacity="1.000000" stroke="none" 
	d="
M63.531342,1.000000 
	C64.000000,26.291397 64.258209,51.586609 63.884766,76.872490 
	C63.712959,88.505440 63.168915,100.392456 57.868111,111.069191 
	C54.901913,117.043610 50.344166,122.213623 46.710186,127.878639 
	C45.480415,129.795746 44.161774,132.105652 44.119362,134.260376 
	C43.874630,146.693924 44.000000,159.134750 44.000000,171.960236 
	C37.912426,171.960236 32.170158,171.960236 26.077137,171.960236 
	C26.077137,192.729767 26.077137,213.113754 26.077137,234.000000 
	C17.791908,234.000000 9.864608,234.000000 1.468654,234.000000 
	C1.000000,156.448257 1.000000,78.896523 1.000000,1.000000 
	C21.686285,1.000000 42.374485,1.000000 63.531342,1.000000 
z"/>
<path fill="#FFFFFF" opacity="1.000000" stroke="none" 
	d="
M326.716797,188.337616 
	C328.455475,195.776947 329.950409,202.857315 331.445343,209.937683 
	C331.716644,210.004929 331.987915,210.072189 332.259186,210.139435 
	C333.483917,205.537857 334.774048,200.952362 335.911133,196.329224 
	C336.717957,193.048813 337.193054,189.684814 338.047791,186.418732 
	C338.810852,183.502747 339.139771,180.553589 343.824432,180.807159 
	C348.074005,181.037155 349.307434,182.685120 350.106018,186.479340 
	C351.679932,193.957382 353.849121,201.310150 356.902710,208.783051 
	C358.595642,202.127457 360.463837,195.510345 361.936066,188.806290 
	C363.683411,180.849564 363.535736,180.817139 372.296234,181.188736 
	C371.125061,186.372574 370.078430,191.442764 368.822571,196.460587 
	C366.953644,203.927948 364.921509,211.354309 362.989471,218.806046 
	C362.003082,222.610413 358.941406,222.867294 355.862762,222.977783 
	C353.085724,223.077454 350.512665,223.124466 349.636841,219.338165 
	C348.156036,212.936325 346.199371,206.644547 344.026520,198.804504 
	C342.757629,201.847092 341.653015,203.863419 341.072540,206.020767 
	C339.904053,210.363419 338.658722,214.739426 338.125336,219.183319 
	C337.622955,223.368896 334.485535,223.031113 332.178284,222.822296 
	C329.727905,222.600525 325.753235,221.462784 325.288727,219.886719 
	C321.797913,208.042465 318.998810,195.993835 316.026825,183.998367 
	C315.834320,183.221466 316.001740,182.355408 316.001740,181.542847 
	C326.718292,180.339325 324.984436,180.343872 326.716797,188.337616 
z"/>
<path fill="#FFFFFF" opacity="1.000000" stroke="none" 
	d="
M772.979004,185.886749 
	C773.253479,178.621643 778.241455,181.686523 782.773987,180.665131 
	C781.377502,186.490799 780.264771,191.446686 778.993835,196.361664 
	C777.065735,203.817780 774.822632,211.198776 773.112793,218.702698 
	C772.078308,223.242691 768.905029,223.130508 765.611023,222.956223 
	C762.767151,222.805771 760.575867,222.202927 759.843750,218.429108 
	C758.532593,211.671478 756.316040,205.089493 754.119568,197.136383 
	C752.576355,203.083084 751.288757,208.044281 750.001465,213.005539 
	C749.679749,214.245667 749.357056,215.485519 749.037964,216.726303 
	C747.437134,222.951920 742.870911,225.025528 737.270142,221.918915 
	C736.515747,221.500458 736.016174,220.288696 735.765442,219.346634 
	C732.624268,207.544846 729.520752,195.732635 726.529236,183.892349 
	C726.334106,183.120285 726.871399,181.621246 727.511597,181.270844 
	C730.863220,179.436401 735.157043,181.562317 736.122192,185.444000 
	C738.290405,194.164566 740.390564,202.902069 742.576477,211.871170 
	C744.751526,202.599289 747.002625,193.554398 748.945862,184.443863 
	C749.706482,180.877640 751.923279,180.822235 754.704468,180.967728 
	C757.347534,181.106003 759.475098,180.579727 760.206787,184.693771 
	C761.750916,193.376175 764.361511,201.868896 766.800171,211.487213 
	C768.983154,202.568298 770.971924,194.443069 772.979004,185.886749 
z"/>
<path fill="#FFFFFF" opacity="1.000000" stroke="none" 
	d="
M506.874634,181.000000 
	C510.834747,180.528061 512.602600,182.560043 514.103271,185.408981 
	C517.581299,192.011673 521.257080,198.510208 526.000000,204.940369 
	C526.000000,198.936752 526.061035,192.932251 525.975830,186.929840 
	C525.928833,183.616089 525.555115,180.821747 530.609375,180.841309 
	C535.903687,180.861816 534.993103,184.071060 534.996399,187.146988 
	C535.006409,196.475342 534.938904,205.804306 535.032227,215.131729 
	C535.066284,218.531494 535.077881,222.194885 531.020752,222.831711 
	C527.076111,223.450928 523.490173,222.283707 521.393616,217.987427 
	C517.909607,210.847946 513.991089,203.920441 508.999969,197.052322 
	C508.999969,204.211472 508.818390,211.377136 509.074341,218.527115 
	C509.208008,222.260773 507.256134,223.037170 504.304230,222.978928 
	C501.544708,222.924484 499.855713,222.059387 499.923981,218.635696 
	C500.133026,208.145462 500.170044,197.644440 499.924805,187.155762 
	C499.810455,182.264496 501.870239,180.511002 506.874634,181.000000 
z"/>
<path fill="#FFFFFF" opacity="1.000000" stroke="none" 
	d="
M656.000000,201.001389 
	C656.000000,196.505417 655.991577,192.508926 656.002808,188.512497 
	C656.011047,185.601807 655.227783,182.253342 659.093140,181.052277 
	C663.755737,179.603485 667.794495,181.194611 670.005798,185.223053 
	C672.866089,190.433731 675.645508,195.688828 678.455078,200.927292 
	C679.193726,202.304443 679.915344,203.690720 681.218994,206.160812 
	C681.623962,204.085800 681.964844,203.124130 681.974426,202.159134 
	C682.027527,196.831039 682.108337,191.499100 681.959595,186.174622 
	C681.869690,182.956635 682.123352,180.824631 686.363953,180.870453 
	C690.315979,180.913162 691.013306,182.860077 691.007141,186.009338 
	C690.987671,196.000473 690.991516,205.991699 691.004761,215.982864 
	C691.009033,219.219315 690.326355,222.163757 686.589966,222.708832 
	C683.080811,223.220779 679.853577,222.517441 677.980957,218.906479 
	C675.021790,213.200195 672.010864,207.520325 668.969116,201.857590 
	C668.195740,200.417770 667.223511,199.084702 666.342651,197.702591 
	C665.895081,197.846954 665.447571,197.991333 665.000000,198.135712 
	C665.000000,204.511063 664.931335,210.887451 665.028992,217.261307 
	C665.077698,220.442184 664.500793,222.871689 660.644470,223.010834 
	C656.681641,223.153809 655.760376,221.080521 655.933777,217.483658 
	C656.190002,212.167343 656.000000,206.829544 656.000000,201.001389 
z"/>
<path fill="#FFFFFF" opacity="1.000000" stroke="none" 
	d="
M180.418335,103.012878 
	C187.136612,101.749977 190.432419,104.960037 192.874191,110.356827 
	C195.688843,116.577774 199.116806,122.521225 203.000000,129.969162 
	C203.000000,122.337990 202.999802,116.165367 203.000046,109.992744 
	C203.000320,102.798607 203.000488,102.798607 210.991547,103.197922 
	C210.991547,115.920647 211.165176,128.680099 210.888214,141.429779 
	C210.802490,145.375748 204.577972,146.345856 200.626251,142.965775 
	C199.090286,141.652008 198.030533,139.687805 197.018097,137.872513 
	C193.363602,131.319992 189.822556,124.704224 186.221512,118.121719 
	C186.188614,118.061577 185.921432,118.129570 185.000000,118.177238 
	C185.000000,125.295219 184.888260,132.479752 185.053650,139.657883 
	C185.122131,142.629623 184.692368,144.858948 181.191727,144.982346 
	C177.335327,145.118256 176.903503,142.734741 176.947266,139.543869 
	C177.088654,129.234100 176.852142,118.917114 177.134323,108.613129 
	C177.186020,106.725533 178.986526,104.885834 180.418335,103.012878 
z"/>
<path fill="#FFFFFF" opacity="1.000000" stroke="none" 
	d="
M228.000031,51.854904 
	C228.129913,46.978462 227.536148,42.359573 228.541763,38.120064 
	C230.580170,29.526497 238.469254,24.048532 247.459427,24.000500 
	C256.359619,23.952950 263.065796,28.261267 265.321472,35.842857 
	C268.203827,45.530846 267.858459,54.681923 260.144470,62.380131 
	C253.475845,69.035057 245.349915,67.851204 237.716400,65.669601 
	C231.706390,63.951984 228.976135,58.408802 228.000031,51.854904 
M253.995529,56.503838 
	C257.584900,51.858147 257.648529,46.316452 256.752808,41.101059 
	C256.253967,38.196617 254.024170,34.477592 251.526474,33.238964 
	C244.332489,29.671415 239.018021,33.252064 237.232315,42.713497 
	C236.189163,48.240532 236.577011,54.217918 241.605377,57.839283 
	C245.207245,60.433300 249.617981,59.704567 253.995529,56.503838 
z"/>
<path fill="#FFFFFF" opacity="1.000000" stroke="none" 
	d="
M644.747620,217.744080 
	C636.463379,225.727371 619.045715,224.765549 614.010132,215.467972 
	C609.351013,206.865555 609.248352,191.327042 618.003601,184.571121 
	C624.457642,179.590912 631.877991,179.279388 639.370361,181.902649 
	C646.993713,184.571747 649.677795,190.737030 649.973816,198.223923 
	C650.245850,205.105988 650.180420,211.966492 644.747620,217.744080 
M638.979553,210.203293 
	C639.319702,205.831955 639.546265,201.447952 640.032104,197.092850 
	C640.512390,192.788376 635.666626,188.290405 632.560364,188.065002 
	C628.127869,187.743393 623.307251,188.441574 622.418457,193.464371 
	C621.456055,198.903107 621.697388,204.665619 622.216919,210.211700 
	C622.501038,213.244125 625.191101,215.058411 628.605164,215.009811 
	C632.480957,214.954620 636.663757,215.727753 638.979553,210.203293 
z"/>
<path fill="#FFFFFF" opacity="1.000000" stroke="none" 
	d="
M231.000000,201.930954 
	C230.939133,210.110184 229.149139,217.102219 221.540131,220.733917 
	C213.340683,224.647415 204.702560,224.727402 197.746017,218.749146 
	C192.021683,213.829819 191.323105,206.150284 192.059509,198.845612 
	C193.215363,187.379913 200.428726,180.637146 211.663742,180.002823 
	C222.533508,179.389130 230.951599,187.426163 230.999420,198.464539 
	C231.003754,199.464432 231.000000,200.464371 231.000000,201.930954 
M202.000046,206.093994 
	C203.106689,212.987045 205.127502,214.965332 211.097504,215.000000 
	C216.931274,215.033875 220.524231,212.857819 220.918182,208.485016 
	C221.272934,204.547363 221.131088,200.547363 220.965698,196.584976 
	C220.766296,191.807663 218.014999,188.956451 213.441925,188.045380 
	C209.346130,187.229401 204.420807,189.780319 203.120316,194.089890 
	C202.065918,197.583984 202.324036,201.474136 202.000046,206.093994 
z"/>
<path fill="#FFFFFF" opacity="1.000000" stroke="none" 
	d="
M346.374817,57.142174 
	C343.925537,62.624249 339.266663,64.963448 334.371033,65.661644 
	C328.504303,66.498344 322.429199,66.111862 316.468658,65.796257 
	C315.578217,65.749115 314.137451,63.208675 314.110382,61.799404 
	C313.909302,51.327362 313.914490,40.848583 314.049347,30.374424 
	C314.094513,26.868137 315.590485,24.502222 319.812317,24.957823 
	C324.514282,25.465235 329.366180,25.104698 333.950897,26.075497 
	C345.834686,28.591843 351.790527,38.719738 348.764343,50.539116 
	C348.213898,52.689030 347.367065,54.763065 346.374817,57.142174 
M326.245819,32.002308 
	C325.499603,32.564117 324.112946,33.115269 324.103394,33.689335 
	C323.963470,42.098274 324.007172,50.510269 324.007172,58.843349 
	C333.772888,59.919933 338.638092,56.709671 339.354156,46.313072 
	C339.892883,38.490612 336.902130,34.036144 329.352478,32.960850 
	C328.584259,32.851429 327.872162,32.347713 326.245819,32.002308 
z"/>
<path fill="#FFFFFF" opacity="1.000000" stroke="none" 
	d="
M424.001007,62.651840 
	C424.000092,51.194695 424.117737,40.205261 423.919281,29.221540 
	C423.868103,26.389187 425.176697,25.081165 427.441711,25.097799 
	C432.503357,25.134975 437.695465,25.010105 442.593445,26.067459 
	C452.795227,28.269766 454.929260,35.796097 448.320587,43.479599 
	C450.247284,46.054302 452.779358,48.311485 453.761749,51.112236 
	C454.528564,53.298252 453.853912,56.343658 452.964233,58.681606 
	C451.233124,63.230747 447.358368,65.596062 442.644318,65.922348 
	C437.673889,66.266388 432.648773,66.190979 427.675507,65.867958 
	C426.396912,65.784912 425.223602,64.080994 424.001007,62.651840 
M433.003357,50.709602 
	C433.003357,53.445511 433.003357,56.181419 433.003357,58.998493 
	C435.764832,58.998493 438.164276,59.608421 439.969055,58.833458 
	C441.922211,57.994785 444.319061,56.045330 444.647156,54.239632 
	C444.913177,52.775600 442.699860,49.782913 441.052734,49.304321 
	C438.634216,48.601604 435.740051,49.535923 433.003357,50.709602 
M440.093811,33.006538 
	C437.827637,32.596634 435.561462,32.186729 433.258240,31.770119 
	C433.258240,35.701462 433.258240,38.803097 433.258240,43.231861 
	C436.633392,41.715389 439.646240,40.929443 441.771881,39.108051 
	C442.547668,38.443314 441.213776,35.316559 440.093811,33.006538 
z"/>
<path fill="#FFFFFF" opacity="1.000000" stroke="none" 
	d="
M558.017517,203.677979 
	C558.002136,201.936508 558.002136,200.652451 558.002136,199.001144 
	C563.129883,199.001144 567.941650,198.792694 572.710999,199.150253 
	C573.878235,199.237762 575.762817,201.114105 575.849365,202.277267 
	C576.206421,207.077103 576.050415,211.919647 575.985352,216.745178 
	C575.912781,222.130295 571.345093,221.771072 568.053406,222.388519 
	C559.579346,223.978043 551.282898,223.720932 545.104919,216.502563 
	C540.686707,211.340225 539.875000,205.342377 540.818359,198.512283 
	C541.964905,190.210754 545.808716,184.789291 553.561340,181.861343 
	C559.903076,179.466248 566.216003,180.147568 572.337708,182.227386 
	C576.338745,183.586731 576.975220,186.973465 574.841003,191.610046 
	C569.302002,190.105911 564.266663,186.306396 557.901611,188.902252 
	C551.553711,191.491074 548.079346,198.966599 550.218140,206.687286 
	C551.901001,212.762115 557.690735,216.263306 564.286560,214.892502 
	C565.334961,214.674606 566.601013,213.226837 566.882507,212.122406 
	C567.319763,210.406708 566.998047,208.497543 566.998047,207.022659 
	C563.889832,206.021652 560.961365,205.078537 558.017517,203.677979 
z"/>
<path fill="#FFFFFF" opacity="1.000000" stroke="none" 
	d="
M255.019043,212.948364 
	C253.548416,208.483597 251.667496,205.004425 245.999878,206.278244 
	C245.999878,210.567780 245.859543,214.874512 246.045090,219.167145 
	C246.189026,222.497498 244.077744,222.956924 241.677170,222.957550 
	C239.149246,222.958221 236.891174,222.672165 236.943436,219.023666 
	C237.100601,208.052216 237.041321,197.076828 236.975998,186.103516 
	C236.955215,182.611694 238.406342,180.678421 241.976410,181.031464 
	C248.225113,181.649353 255.054077,181.097351 260.550659,183.513489 
	C268.647400,187.072556 268.183929,197.323654 260.591736,202.113327 
	C260.041534,202.460419 259.593323,202.969193 259.805969,202.783157 
	C262.536377,208.136322 265.299438,213.172867 267.600830,218.412216 
	C268.021240,219.369293 266.918243,221.948898 265.901276,222.405777 
	C262.811462,223.793900 259.800140,223.153946 258.023987,219.893982 
	C256.878693,217.791962 256.022980,215.532181 255.019043,212.948364 
M246.000000,195.369263 
	C246.051514,196.496658 246.103027,197.624054 246.208862,199.940201 
	C249.795761,198.658844 253.086166,197.966736 255.733658,196.270950 
	C256.639069,195.690964 256.680878,191.407028 255.823395,190.865936 
	C253.095612,189.144684 249.758621,188.388885 246.000000,187.020905 
	C246.000000,190.492081 246.000000,192.463501 246.000000,195.369263 
z"/>
<path fill="#FFFFFF" opacity="1.000000" stroke="none" 
	d="
M201.170074,25.000000 
	C205.133118,25.022781 208.731552,24.511478 212.088928,25.191072 
	C217.383621,26.262815 221.589005,29.209047 222.956314,34.909012 
	C223.975555,39.157932 221.471634,43.636292 216.970596,46.801395 
	C219.855316,52.943184 222.670914,58.937786 225.467407,64.891739 
	C219.100082,68.597641 216.601227,67.846420 213.990082,61.902245 
	C212.831497,59.264771 211.757538,56.584873 210.479645,54.006271 
	C208.545303,50.103146 208.349609,50.057629 202.999924,50.103542 
	C202.999924,54.326092 202.834778,58.575951 203.051575,62.806229 
	C203.228577,66.259903 201.266068,66.996460 198.536453,66.979378 
	C195.876755,66.962738 193.893723,66.366165 193.944778,62.880562 
	C194.098221,52.404739 193.999344,41.925232 194.000244,31.447165 
	C194.000793,25.091110 194.001923,25.091110 201.170074,25.000000 
M203.000183,34.700439 
	C203.000183,37.445847 203.000183,40.191257 203.000183,43.916809 
	C206.339218,42.804935 209.638245,42.646702 211.150803,40.921864 
	C212.496780,39.386971 212.869110,35.563942 211.867477,33.742874 
	C210.387421,31.052029 204.981094,31.507973 203.000183,34.700439 
z"/>
<path fill="#FFFFFF" opacity="1.000000" stroke="none" 
	d="
M475.000000,201.999741 
	C475.000000,206.326202 475.288300,210.181229 474.915009,213.971085 
	C474.574463,217.428268 477.571350,223.097580 470.372986,222.942780 
	C463.222809,222.789032 466.648865,217.109024 466.089966,213.708344 
	C465.644165,210.995743 466.000000,208.151382 466.000000,205.199432 
	C461.191315,205.199432 456.791595,205.199432 451.999786,205.199432 
	C451.999786,210.004150 451.891754,214.623749 452.036072,219.235428 
	C452.139618,222.545425 450.009338,222.995071 447.605896,222.955765 
	C445.339081,222.918732 442.958923,222.843872 442.976929,219.446671 
	C443.038574,207.800720 443.071350,196.153580 442.957764,184.508408 
	C442.923462,180.991547 444.994934,180.978607 447.522888,180.964905 
	C450.093750,180.950943 452.183594,181.069763 452.037781,184.555679 
	C451.872070,188.516632 451.999451,192.489822 451.999451,196.727661 
	C456.636841,196.727661 461.039001,196.727661 466.000000,196.727661 
	C466.000000,193.523239 466.300659,190.220367 465.929932,186.994644 
	C465.366852,182.095276 467.271393,180.231827 472.046631,180.982742 
	C472.837891,181.107178 473.665558,181.000275 475.000000,181.000275 
	C475.000000,187.959625 475.000000,194.729767 475.000000,201.999741 
z"/>
<path fill="#FFFFFF" opacity="1.000000" stroke="none" 
	d="
M289.020294,67.000000 
	C279.496338,67.770126 272.300629,60.731361 272.882874,51.559563 
	C273.429596,42.947422 273.000000,34.273304 273.000000,25.256405 
	C274.575531,25.164900 276.003387,25.153515 277.412659,24.985918 
	C280.830017,24.579504 282.182892,25.872986 282.067902,29.462509 
	C281.838623,36.618347 281.982422,43.786755 282.005554,50.949860 
	C282.023804,56.591961 284.360779,58.969910 289.835663,58.999992 
	C295.051605,59.028656 296.976715,56.871235 296.994995,50.890305 
	C297.016388,43.893772 297.052765,36.896568 296.978607,29.900757 
	C296.939575,26.218309 298.408295,24.840582 302.252167,24.873232 
	C306.000397,24.905069 307.276733,26.091236 307.051361,29.797626 
	C306.561584,37.854027 306.936584,46.004990 305.878540,53.973957 
	C304.630096,63.376682 299.452057,66.990189 289.020294,67.000000 
z"/>
<path fill="#FFFFFF" opacity="1.000000" stroke="none" 
	d="
M377.732758,198.658356 
	C379.655182,193.148407 380.819214,187.697433 383.335297,182.965378 
	C384.182800,181.371399 388.506073,181.017929 391.159668,181.211212 
	C392.853302,181.334579 395.270752,183.181030 395.868317,184.805130 
	C399.845245,195.613708 403.515503,206.539871 407.014008,217.514374 
	C407.512054,219.076782 406.540222,221.107758 406.248657,222.921875 
	C403.820679,222.170425 401.391327,221.423279 398.968628,220.655182 
	C398.843872,220.615616 398.748444,220.408447 398.685608,220.259766 
	C397.697174,217.920944 397.166992,213.984238 395.644348,213.553940 
	C391.934540,212.505508 387.675140,212.573425 383.825897,213.256378 
	C382.294769,213.528046 380.706482,216.448441 380.123199,218.448517 
	C379.039856,222.162918 376.733856,223.184036 373.284088,223.016373 
	C370.445221,222.878357 369.414948,221.857925 370.502106,218.918365 
	C372.943115,212.318069 375.181854,205.642975 377.732758,198.658356 
M393.035583,204.296997 
	C391.836029,200.468903 390.636475,196.640793 389.436920,192.812698 
	C389.061951,192.846558 388.686951,192.880402 388.311951,192.914261 
	C386.864929,197.148926 385.417908,201.383591 383.652161,206.550919 
	C387.537750,205.939499 390.499268,205.473495 393.035583,204.296997 
z"/>
<path fill="#FFFFFF" opacity="1.000000" stroke="none" 
	d="
M485.000000,39.983120 
	C485.000000,34.845924 485.000000,30.204178 485.000000,25.000046 
	C486.645844,25.000046 488.083710,25.133965 489.487976,24.973686 
	C493.002960,24.572504 494.166962,26.041414 494.064850,29.535202 
	C493.850922,36.855347 494.062622,44.186779 493.982941,51.512306 
	C493.897430,59.374935 488.556793,65.569122 480.806763,66.984856 
	C471.546051,68.676552 462.769104,64.438728 460.371460,56.747204 
	C459.659424,54.462982 460.026428,51.822319 460.012665,49.344357 
	C459.975647,42.684204 460.173798,36.017376 459.931610,29.365837 
	C459.797272,25.677122 461.365753,24.898991 464.672668,24.909573 
	C467.874146,24.919817 469.144440,25.880192 469.057373,29.210112 
	C468.870361,36.365108 468.870178,43.531662 469.050690,50.686993 
	C469.152252,54.712559 470.151672,58.479397 475.183746,58.987442 
	C481.075378,59.582268 482.577332,58.503250 484.046753,52.658844 
	C484.474518,50.957531 484.844452,49.212883 484.961517,47.469334 
	C485.117371,45.148685 485.000000,42.809685 485.000000,39.983120 
z"/>
<path fill="#FFFFFF" opacity="1.000000" stroke="none" 
	d="
M165.282425,25.000065 
	C170.469254,25.338112 175.296768,25.171301 179.878906,26.151505 
	C184.794815,27.203115 189.241379,33.596043 188.983337,37.833664 
	C188.557159,44.832130 183.242996,51.239208 177.204422,51.990643 
	C174.629486,52.311069 172.045319,52.557320 168.999908,52.887783 
	C168.999908,56.375271 168.841263,59.666069 169.042725,62.934677 
	C169.261826,66.489410 167.016678,66.975464 164.410721,66.965919 
	C162.022110,66.957176 159.935379,66.556274 159.963074,63.255955 
	C160.059311,51.783524 160.066254,40.309185 159.961624,28.836899 
	C159.928375,25.190516 162.327393,25.171055 165.282425,25.000065 
M169.038681,44.150005 
	C172.043457,45.580898 175.398514,46.171089 177.213348,43.009953 
	C178.373215,40.989639 178.927353,37.166248 177.777618,35.622128 
	C176.122437,33.399128 172.671066,32.513546 169.814346,30.963898 
	C169.237946,32.610134 169.039841,32.915974 169.037155,33.223526 
	C169.008011,36.555443 169.009537,39.887623 169.038681,44.150005 
z"/>
<path fill="#FFFFFF" opacity="1.000000" stroke="none" 
	d="
M187.447449,200.057892 
	C184.607605,205.197159 180.682709,207.810913 175.099426,208.052368 
	C173.082748,208.139587 171.091965,208.825439 168.999893,209.256546 
	C168.999893,212.765610 168.859894,215.924652 169.036530,219.065872 
	C169.241821,222.716675 166.794510,222.984161 164.272156,222.954269 
	C161.880188,222.925934 159.899704,222.431305 159.942795,219.108734 
	C160.091705,207.624603 159.943985,196.136642 160.091415,184.652466 
	C160.105484,183.556503 161.312119,181.598053 162.099472,181.526901 
	C169.227585,180.882782 176.619614,179.446716 183.110672,183.728607 
	C187.281723,186.480072 189.559555,190.479050 188.067932,195.843704 
	C187.720566,197.093079 187.838089,198.471741 187.447449,200.057892 
M178.998199,195.297867 
	C178.340576,189.067886 176.229095,187.581390 169.188736,188.462616 
	C169.188736,192.522659 169.188736,196.591125 169.188736,200.649109 
	C173.851791,201.843399 177.367386,201.001511 178.998199,195.297867 
z"/>
<path fill="#FFFFFF" opacity="1.000000" stroke="none" 
	d="
M430.760986,221.053833 
	C424.231537,224.739609 418.029877,223.596741 412.367676,220.437363 
	C410.831940,219.580460 410.842377,215.952515 410.143188,213.596405 
	C411.462891,213.400284 412.829529,212.884613 414.093231,213.070068 
	C417.411346,213.557037 420.676727,214.755280 423.979736,214.819824 
	C425.296051,214.845535 427.426086,212.813538 427.758850,211.385742 
	C428.038086,210.187729 426.573059,208.040985 425.297180,207.140717 
	C422.964233,205.494583 420.169708,204.516678 417.622803,203.156845 
	C412.426636,200.382492 410.064240,195.712570 411.013763,190.278152 
	C411.911133,185.142273 415.471069,181.811920 421.321838,181.050278 
	C423.757782,180.733154 426.270386,180.954758 428.746552,181.007370 
	C434.452606,181.128586 435.941803,184.339310 434.646362,190.092255 
	C433.086548,189.730743 431.503174,189.307190 429.896912,189.005646 
	C427.844421,188.620346 425.747375,187.983841 423.720123,188.134796 
	C422.495911,188.225952 420.777771,189.386459 420.374176,190.472519 
	C420.021362,191.421906 420.845032,193.381409 421.768372,194.113983 
	C423.751343,195.687332 426.080627,196.862274 428.361389,198.015900 
	C439.837799,203.820786 440.920715,212.590134 430.760986,221.053833 
z"/>
<path fill="#FFFFFF" opacity="1.000000" stroke="none" 
	d="
M379.269348,40.693726 
	C376.786774,35.517036 374.537781,30.649603 372.312195,25.832878 
	C373.355347,25.302046 373.499023,25.171467 373.652222,25.159193 
	C382.334290,24.463449 382.604492,24.681005 385.999146,34.128590 
	C386.731689,36.167278 387.647705,38.140034 388.912689,41.187588 
	C390.589722,37.667950 391.997131,35.218548 392.956787,32.604752 
	C395.758057,24.974834 396.395172,24.509062 405.253479,25.391281 
	C404.783752,27.108313 404.545135,28.830618 403.850006,30.343117 
	C402.441650,33.407410 400.891968,36.418957 399.211060,39.343304 
	C395.317871,46.116322 392.825500,53.193062 394.005524,61.153927 
	C394.622437,65.315544 392.259247,66.750137 388.672882,66.984924 
	C384.761841,67.240952 383.649933,65.153244 383.962677,61.529800 
	C384.590302,54.258965 384.021667,47.184860 379.269348,40.693726 
z"/>
<path fill="#FFFFFF" opacity="1.000000" stroke="none" 
	d="
M558.000000,41.053604 
	C558.000000,48.360603 557.939331,55.177010 558.024719,61.991585 
	C558.069397,65.562683 556.439697,67.036964 552.927612,67.038116 
	C549.307373,67.039299 547.948853,65.308945 547.975281,61.846962 
	C548.047424,52.400475 548.000061,42.953072 548.000061,32.999870 
	C545.463196,32.999870 543.188416,32.863590 540.936646,33.032879 
	C537.818726,33.267277 536.949646,31.847879 536.924927,28.911823 
	C536.898499,25.785646 538.183044,24.906435 541.111511,24.954805 
	C549.088684,25.086571 557.071167,25.098780 565.047729,24.950449 
	C568.140869,24.892929 569.054565,26.115841 569.075562,29.070105 
	C569.097656,32.179333 567.854553,33.244019 564.904175,33.029881 
	C562.781921,32.875847 560.639404,32.999893 558.000000,32.999893 
	C558.000000,35.684559 558.000000,38.123402 558.000000,41.053604 
z"/>
<path fill="#FFFFFF" opacity="1.000000" stroke="none" 
	d="
M589.998169,191.218842 
	C587.918579,190.159988 585.846863,189.133209 583.761169,189.104248 
	C580.597412,189.060333 578.833679,188.552780 578.895508,184.746933 
	C578.957092,180.956238 581.062439,180.953751 583.766541,180.977020 
	C591.406921,181.042770 599.050720,181.111862 606.688049,180.946686 
	C609.879028,180.877686 611.123474,181.881516 611.088074,185.205124 
	C611.053589,188.444107 609.581665,189.186050 606.777466,189.028519 
	C604.333923,188.891266 601.876587,188.999939 599.000000,188.999939 
	C599.000000,198.931183 598.831848,208.522629 599.083679,218.103043 
	C599.182861,221.874588 597.585449,223.059341 594.252563,223.000656 
	C591.016968,222.943695 589.835876,221.469025 589.923096,218.106873 
	C590.151306,209.309082 589.999878,200.501434 589.998169,191.218842 
z"/>
<path fill="#FFFFFF" opacity="1.000000" stroke="none" 
	d="
M289.000000,197.052826 
	C288.999969,204.534973 288.818390,211.532104 289.073578,218.513260 
	C289.209198,222.222961 287.289948,223.033142 284.324615,222.981613 
	C281.563110,222.933624 279.851288,222.094086 279.925690,218.662247 
	C280.137573,208.892471 280.000061,199.115112 280.000061,189.388794 
	C268.929321,188.301239 268.929321,188.301239 269.074615,181.338440 
	C279.119934,181.338440 289.184723,181.338440 299.952972,181.338440 
	C300.092468,183.580826 300.248077,186.081863 300.425659,188.936569 
	C296.397034,188.936569 292.956879,188.936569 289.000000,188.936569 
	C289.000000,191.684204 289.000000,194.122681 289.000000,197.052826 
z"/>
<path fill="#FFFFFF" opacity="1.000000" stroke="none" 
	d="
M528.000000,54.860512 
	C527.618958,57.927292 528.249146,59.410427 531.343079,59.052242 
	C533.639343,58.786411 536.058167,58.669575 538.293213,59.123089 
	C539.654663,59.399357 541.949463,61.274494 541.789612,61.756653 
	C541.163086,63.646381 539.830200,66.661858 538.574829,66.754585 
	C532.142151,67.229744 525.651978,66.926483 519.103149,66.894890 
	C519.103149,52.151669 519.103149,38.885483 519.103149,25.246477 
	C520.580383,25.162041 522.005920,25.151802 523.413147,24.985954 
	C526.811951,24.585394 528.162659,25.854696 528.068909,29.444866 
	C527.852051,37.750034 528.000000,46.064732 528.000000,54.860512 
z"/>
<path fill="#FFFFFF" opacity="1.000000" stroke="none" 
	d="
M359.817108,25.000088 
	C363.586121,24.648060 364.060333,26.572819 364.035156,29.302158 
	C363.945160,39.056332 363.999939,48.811836 363.999939,58.943909 
	C368.742249,58.943909 373.149353,58.943909 377.770325,58.943909 
	C377.770325,61.381863 377.770325,63.447250 377.770325,65.758636 
	C370.337982,65.758636 362.945465,65.758636 355.275421,65.758636 
	C355.275421,52.396225 355.275421,39.029701 355.275421,25.247540 
	C356.536285,25.171009 357.944916,25.085512 359.817108,25.000088 
z"/>
<path fill="#FFFFFF" opacity="1.000000" stroke="none" 
	d="
M787.000000,200.001297 
	C787.000000,195.351608 787.297485,191.174332 786.921997,187.058411 
	C786.487915,182.300171 788.061035,180.175949 792.958008,180.981735 
	C793.757019,181.113220 794.596313,181.000229 795.992859,181.000229 
	C795.992859,194.174911 796.094482,207.232224 795.780762,220.279556 
	C795.758118,221.223068 792.777039,222.648132 791.053162,222.852707 
	C789.069641,223.088074 786.901184,222.485931 786.962463,219.424789 
	C787.088623,213.119080 787.000122,206.809067 787.000000,200.001297 
z"/>
<path fill="#FFFFFF" opacity="1.000000" stroke="none" 
	d="
M511.000000,58.881023 
	C510.999695,65.794106 509.241364,68.152184 505.049652,66.847107 
	C503.793060,66.455879 502.152435,64.578316 502.131714,63.357185 
	C501.917847,50.761700 502.000397,38.161190 502.000397,25.180744 
	C503.468964,25.114119 504.740479,25.156733 505.981262,24.981609 
	C509.927124,24.424677 511.196808,26.019604 511.085236,30.003363 
	C510.820312,39.461361 511.000000,48.931808 511.000000,58.881023 
z"/>
<path fill="#FFFFFF" opacity="1.000000" stroke="none" 
	d="
M483.000000,196.010010 
	C483.000000,192.690170 483.266998,189.836655 482.940552,187.052719 
	C482.382019,182.289841 484.076904,180.180222 488.963989,180.981796 
	C489.762451,181.112762 490.600861,181.000229 491.992676,181.000229 
	C491.992676,194.180695 492.094238,207.238922 491.780304,220.287170 
	C491.757690,221.228195 488.770905,222.650284 487.045410,222.852753 
	C485.060089,223.085724 482.913483,222.475113 482.961182,219.416763 
	C483.080261,211.782043 483.000183,204.144211 483.000000,196.010010 
z"/>
<path fill="#FFFFFF" opacity="1.000000" stroke="none" 
	d="
M168.999237,141.598862 
	C166.932343,143.027512 164.887833,144.712799 162.794220,144.776199 
	C160.408936,144.848404 159.898651,142.590271 159.932922,140.150513 
	C160.086853,129.192154 160.130188,118.228012 159.928482,107.271202 
	C159.859146,103.504837 161.542023,102.935570 164.744080,102.911987 
	C168.010452,102.887947 169.097031,104.016373 169.055634,107.261833 
	C168.911575,118.552666 168.999924,129.846466 168.999237,141.598862 
z"/>
<path fill="#FFFFFF" opacity="1.000000" stroke="none" 
	d="
M707.079956,221.699921 
	C705.049133,224.839767 703.368042,227.842987 701.043152,230.215164 
	C700.006714,231.272659 697.674622,231.060364 695.930603,231.424393 
	C695.967896,229.816086 695.715149,228.133575 696.103638,226.615143 
	C696.883911,223.565582 698.896423,220.571655 698.782959,217.616913 
	C698.631470,213.674103 701.075256,212.336365 703.508728,212.335815 
	C705.967896,212.335251 709.027100,213.732193 708.006226,217.638138 
	C707.689209,218.851089 707.445007,220.083069 707.079956,221.699921 
z"/>
<path fill="#000000" opacity="1.000000" stroke="none" 
	d="
M49.974335,215.965302 
	C53.788818,197.209518 69.252815,187.082016 87.947845,190.828674 
	C101.875999,193.619995 109.599174,201.966751 112.982780,215.075851 
	C114.537155,221.098007 115.588013,227.250122 116.961052,233.790375 
	C93.248695,233.790375 70.849823,233.790375 47.236176,233.790375 
	C48.171558,227.798553 49.061916,222.095169 49.974335,215.965302 
z"/>
<path fill="#000000" opacity="1.000000" stroke="none" 
	d="
M253.699982,56.782207 
	C249.617981,59.704567 245.207245,60.433300 241.605377,57.839283 
	C236.577011,54.217918 236.189163,48.240532 237.232315,42.713497 
	C239.018021,33.252064 244.332489,29.671415 251.526474,33.238964 
	C254.024170,34.477592 256.253967,38.196617 256.752808,41.101059 
	C257.648529,46.316452 257.584900,51.858147 253.699982,56.782207 
z"/>
<path fill="#000000" opacity="1.000000" stroke="none" 
	d="
M638.785156,210.567383 
	C636.663757,215.727753 632.480957,214.954620 628.605164,215.009811 
	C625.191101,215.058411 622.501038,213.244125 622.216919,210.211700 
	C621.697388,204.665619 621.456055,198.903107 622.418457,193.464371 
	C623.307251,188.441574 628.127869,187.743393 632.560364,188.065002 
	C635.666626,188.290405 640.512390,192.788376 640.032104,197.092850 
	C639.546265,201.447952 639.319702,205.831955 638.785156,210.567383 
z"/>
<path fill="#000000" opacity="1.000000" stroke="none" 
	d="
M202.000031,205.641312 
	C202.324036,201.474136 202.065918,197.583984 203.120316,194.089890 
	C204.420807,189.780319 209.346130,187.229401 213.441925,188.045380 
	C218.014999,188.956451 220.766296,191.807663 220.965698,196.584976 
	C221.131088,200.547363 221.272934,204.547363 220.918182,208.485016 
	C220.524231,212.857819 216.931274,215.033875 211.097504,215.000000 
	C205.127502,214.965332 203.106689,212.987045 202.000031,205.641312 
z"/>
<path fill="#000000" opacity="1.000000" stroke="none" 
	d="
M326.689941,32.014641 
	C327.872162,32.347713 328.584259,32.851429 329.352478,32.960850 
	C336.902130,34.036144 339.892883,38.490612 339.354156,46.313072 
	C338.638092,56.709671 333.772888,59.919933 324.007172,58.843349 
	C324.007172,50.510269 323.963470,42.098274 324.103394,33.689335 
	C324.112946,33.115269 325.499603,32.564117 326.689941,32.014641 
z"/>
<path fill="#000000" opacity="1.000000" stroke="none" 
	d="
M433.025940,50.241188 
	C435.740051,49.535923 438.634216,48.601604 441.052734,49.304321 
	C442.699860,49.782913 444.913177,52.775600 444.647156,54.239632 
	C444.319061,56.045330 441.922211,57.994785 439.969055,58.833458 
	C438.164276,59.608421 435.764832,58.998493 433.003357,58.998493 
	C433.003357,56.181419 433.003357,53.445511 433.025940,50.241188 
z"/>
<path fill="#000000" opacity="1.000000" stroke="none" 
	d="
M440.468079,33.159775 
	C441.213776,35.316559 442.547668,38.443314 441.771881,39.108051 
	C439.646240,40.929443 436.633392,41.715389 433.258240,43.231861 
	C433.258240,38.803097 433.258240,35.701462 433.258240,31.770119 
	C435.561462,32.186729 437.827637,32.596634 440.468079,33.159775 
z"/>
<path fill="#000000" opacity="1.000000" stroke="none" 
	d="
M246.000000,194.902084 
	C246.000000,192.463501 246.000000,190.492081 246.000000,187.020905 
	C249.758621,188.388885 253.095612,189.144684 255.823395,190.865936 
	C256.680878,191.407028 256.639069,195.690964 255.733658,196.270950 
	C253.086166,197.966736 249.795761,198.658844 246.208862,199.940201 
	C246.103027,197.624054 246.051514,196.496658 246.000000,194.902084 
z"/>
<path fill="#000000" opacity="1.000000" stroke="none" 
	d="
M203.001465,34.235229 
	C204.981094,31.507973 210.387421,31.052029 211.867477,33.742874 
	C212.869110,35.563942 212.496780,39.386971 211.150803,40.921864 
	C209.638245,42.646702 206.339218,42.804935 203.000183,43.916809 
	C203.000183,40.191257 203.000183,37.445847 203.001465,34.235229 
z"/>
<path fill="#000000" opacity="1.000000" stroke="none" 
	d="
M393.248169,204.652252 
	C390.499268,205.473495 387.537750,205.939499 383.652161,206.550919 
	C385.417908,201.383591 386.864929,197.148926 388.311951,192.914261 
	C388.686951,192.880402 389.061951,192.846558 389.436920,192.812698 
	C390.636475,196.640793 391.836029,200.468903 393.248169,204.652252 
z"/>
<path fill="#000000" opacity="1.000000" stroke="none" 
	d="
M169.020691,43.684868 
	C169.009537,39.887623 169.008011,36.555443 169.037155,33.223526 
	C169.039841,32.915974 169.237946,32.610134 169.814346,30.963898 
	C172.671066,32.513546 176.122437,33.399128 177.777618,35.622128 
	C178.927353,37.166248 178.373215,40.989639 177.213348,43.009953 
	C175.398514,46.171089 172.043457,45.580898 169.020691,43.684868 
z"/>
<path fill="#000000" opacity="1.000000" stroke="none" 
	d="
M178.986328,195.709534 
	C177.367386,201.001511 173.851791,201.843399 169.188736,200.649109 
	C169.188736,196.591125 169.188736,192.522659 169.188736,188.462616 
	C176.229095,187.581390 178.340576,189.067886 178.986328,195.709534 
z"/>
</svg>