<svg xmlns="http://www.w3.org/2000/svg" xmlns:xlink="http://www.w3.org/1999/xlink" width="500" zoomAndPan="magnify" viewBox="0 0 375 374.999991" height="500" preserveAspectRatio="xMidYMid meet" version="1.0"><defs><g/><clipPath id="b7a9c11d90"><path d="M 89.585938 0 L 282.335938 0 L 282.335938 235.5 L 89.585938 235.5 Z M 89.585938 0 " clip-rule="nonzero"/></clipPath></defs><g clip-path="url(#b7a9c11d90)"><path fill="#ffffff" d="M 246.265625 86.585938 L 185.824219 0.0390625 L 89.589844 137.839844 L 131.523438 180.367188 C 132 180.882812 132.476562 181.371094 132.960938 181.828125 L 185.824219 235.433594 L 282.0625 137.839844 L 246.414062 86.796875 L 246.453125 86.753906 C 246.390625 86.699219 246.324219 86.644531 246.265625 86.585938 Z M 237.707031 81.242188 C 234.195312 79.917969 230.285156 79.273438 226.078125 79.355469 C 214.21875 79.597656 194.574219 85.726562 167.894531 113.242188 C 165.398438 110.714844 160.027344 105.902344 152.523438 102.558594 C 144.351562 98.910156 132.3125 96.519531 118.542969 103.296875 L 185.824219 6.949219 Z M 113.246094 111.347656 C 125.53125 102.433594 138.128906 100.726562 150.699219 106.285156 C 157.6875 109.375 162.765625 113.96875 165.003906 116.234375 C 150.355469 131.089844 133.960938 138.949219 116.242188 139.605469 C 106.371094 139.972656 98.738281 137.875 95.230469 136.671875 L 113.078125 111.117188 Z M 134.113281 177.058594 L 133.957031 177.199219 L 128 171.160156 C 129.796875 171.496094 131.890625 171.726562 134.269531 171.726562 C 142.152344 171.726562 154.929688 169.113281 171.054688 156.664062 C 183.257812 147.242188 213.9375 126.09375 235.21875 133.234375 C 244.75 136.433594 251.503906 145.109375 255.289062 159.023438 L 255.738281 158.898438 L 233.714844 181.230469 C 233.964844 174.234375 232.023438 169.082031 227.890625 165.886719 C 217.425781 157.789062 196.097656 164.921875 180.046875 172.328125 C 149.835938 186.269531 141.75 185.6875 134.113281 177.058594 Z M 143.828125 187.210938 C 144.773438 187.335938 145.746094 187.402344 146.761719 187.402344 C 147.484375 187.402344 148.226562 187.371094 148.988281 187.3125 C 156.179688 186.742188 165.988281 183.386719 181.785156 176.09375 C 203 166.304688 218.472656 163.84375 225.355469 169.167969 C 229.183594 172.128906 230.425781 177.78125 229.058594 185.953125 L 185.824219 229.796875 Z M 276.929688 137.40625 L 258.703125 155.894531 C 254.421875 141.746094 246.972656 132.804688 236.539062 129.304688 C 214.199219 121.804688 184.335938 141.171875 168.519531 153.382812 C 153.492188 164.988281 141.777344 167.507812 134.601562 167.578125 C 126.914062 167.65625 122.660156 165.011719 122.617188 164.984375 L 122.335938 165.417969 L 99.421875 142.179688 C 103.1875 143.046875 108.128906 143.796875 113.921875 143.796875 C 114.660156 143.796875 115.410156 143.785156 116.175781 143.761719 C 129.5625 143.308594 149.65625 138.421875 169.367188 117.691406 C 180.492188 105.996094 191.324219 97.125 201.554688 91.335938 C 210.464844 86.292969 218.742188 83.660156 226.160156 83.507812 C 233.183594 83.367188 239.210938 85.519531 243.558594 89.738281 L 243.601562 89.695312 Z M 276.929688 137.40625 " fill-opacity="1" fill-rule="nonzero"/></g><g fill="#ffffff" fill-opacity="1"><g transform="translate(52.571155, 292.865254)"><g><path d="M 2.59375 -9.984375 C 2.59375 -11.242188 2.945312 -12.265625 3.65625 -13.046875 C 4.375 -13.835938 5.1875 -14.234375 6.09375 -14.234375 C 6.820312 -14.234375 7.503906 -13.96875 8.140625 -13.4375 C 7.441406 -13.207031 6.953125 -12.8125 6.671875 -12.25 C 6.390625 -11.6875 6.25 -11.039062 6.25 -10.3125 C 6.25 -9.050781 6.679688 -7.804688 7.546875 -6.578125 C 8.410156 -5.347656 9.582031 -4.234375 11.0625 -3.234375 C 12.550781 -2.242188 14.25 -1.457031 16.15625 -0.875 C 18.0625 -0.289062 20.054688 0 22.140625 0 C 24.179688 0 26.132812 -0.25 28 -0.75 C 29.863281 -1.257812 31.523438 -2.007812 32.984375 -3 C 34.453125 -4 35.601562 -5.226562 36.4375 -6.6875 C 37.28125 -8.15625 37.703125 -9.867188 37.703125 -11.828125 C 37.703125 -13.773438 37.3125 -15.394531 36.53125 -16.6875 C 35.757812 -17.988281 34.703125 -19.023438 33.359375 -19.796875 C 32.023438 -20.566406 30.5 -21.179688 28.78125 -21.640625 C 27.0625 -22.097656 25.25 -22.472656 23.34375 -22.765625 C 21.4375 -23.066406 19.535156 -23.375 17.640625 -23.6875 C 15.742188 -24.007812 13.9375 -24.421875 12.21875 -24.921875 C 10.507812 -25.429688 8.984375 -26.109375 7.640625 -26.953125 C 6.296875 -27.804688 5.238281 -28.914062 4.46875 -30.28125 C 3.695312 -31.65625 3.3125 -33.382812 3.3125 -35.46875 C 3.3125 -37.769531 3.863281 -39.734375 4.96875 -41.359375 C 6.070312 -42.984375 7.535156 -44.300781 9.359375 -45.3125 C 11.191406 -46.320312 13.21875 -47.0625 15.4375 -47.53125 C 17.664062 -48.007812 19.882812 -48.25 22.09375 -48.25 C 23.976562 -48.25 25.929688 -48.097656 27.953125 -47.796875 C 29.972656 -47.492188 31.863281 -47.007812 33.625 -46.34375 C 35.394531 -45.6875 36.820312 -44.835938 37.90625 -43.796875 C 39 -42.753906 39.546875 -41.476562 39.546875 -39.96875 C 39.546875 -39.238281 39.398438 -38.597656 39.109375 -38.046875 C 38.828125 -37.492188 38.335938 -37.09375 37.640625 -36.84375 C 37.203125 -39.050781 36.175781 -40.925781 34.5625 -42.46875 C 32.957031 -44.019531 30.992188 -45.210938 28.671875 -46.046875 C 26.359375 -46.878906 23.894531 -47.296875 21.28125 -47.296875 C 16.800781 -47.296875 13.242188 -46.300781 10.609375 -44.3125 C 7.984375 -42.332031 6.671875 -39.460938 6.671875 -35.703125 C 6.671875 -34.066406 7.148438 -32.757812 8.109375 -31.78125 C 9.066406 -30.800781 10.363281 -30.019531 12 -29.4375 C 13.644531 -28.851562 15.492188 -28.375 17.546875 -28 C 19.597656 -27.625 21.707031 -27.253906 23.875 -26.890625 C 26.050781 -26.523438 28.164062 -26.050781 30.21875 -25.46875 C 32.269531 -24.882812 34.113281 -24.09375 35.75 -23.09375 C 37.394531 -22.101562 38.695312 -20.8125 39.65625 -19.21875 C 40.613281 -17.632812 41.09375 -15.613281 41.09375 -13.15625 C 41.09375 -10.75 40.554688 -8.65625 39.484375 -6.875 C 38.421875 -5.09375 36.984375 -3.625 35.171875 -2.46875 C 33.359375 -1.320312 31.320312 -0.46875 29.0625 0.09375 C 26.8125 0.664062 24.503906 0.953125 22.140625 0.953125 C 18.285156 0.953125 14.882812 0.492188 11.9375 -0.421875 C 8.988281 -1.335938 6.691406 -2.625 5.046875 -4.28125 C 3.410156 -5.9375 2.59375 -7.835938 2.59375 -9.984375 Z M 2.59375 -9.984375 "/></g></g></g><g fill="#ffffff" fill-opacity="1"><g transform="translate(95.846454, 292.865254)"><g><path d="M 3.78125 0 L 3.78125 -47.296875 L 36.5625 -47.296875 L 36.5625 -43.09375 C 35.582031 -43.40625 34.316406 -43.71875 32.765625 -44.03125 C 31.222656 -44.34375 29.503906 -44.640625 27.609375 -44.921875 C 25.722656 -45.210938 23.75 -45.457031 21.6875 -45.65625 C 19.625 -45.863281 17.597656 -46.03125 15.609375 -46.15625 C 13.617188 -46.28125 11.757812 -46.34375 10.03125 -46.34375 C 9.175781 -46.34375 8.539062 -46.128906 8.125 -45.703125 C 7.71875 -45.285156 7.515625 -44.429688 7.515625 -43.140625 L 7.515625 -28.1875 C 7.515625 -27.488281 7.734375 -26.921875 8.171875 -26.484375 C 8.617188 -26.046875 9.191406 -25.828125 9.890625 -25.828125 L 31.921875 -25.828125 L 31.921875 -21.84375 C 30.535156 -22.195312 28.863281 -22.535156 26.90625 -22.859375 C 24.957031 -23.191406 22.925781 -23.5 20.8125 -23.78125 C 18.695312 -24.070312 16.6875 -24.296875 14.78125 -24.453125 C 12.875 -24.609375 11.257812 -24.6875 9.9375 -24.6875 C 9.238281 -24.6875 8.664062 -24.519531 8.21875 -24.1875 C 7.78125 -23.863281 7.5625 -23.335938 7.5625 -22.609375 L 7.515625 -4.15625 C 7.515625 -2.894531 7.71875 -2.046875 8.125 -1.609375 C 8.539062 -1.171875 9.175781 -0.953125 10.03125 -0.953125 C 11.757812 -0.953125 13.617188 -1.015625 15.609375 -1.140625 C 17.597656 -1.265625 19.625 -1.425781 21.6875 -1.625 C 23.75 -1.832031 25.722656 -2.078125 27.609375 -2.359375 C 29.503906 -2.648438 31.222656 -2.953125 32.765625 -3.265625 C 34.316406 -3.578125 35.582031 -3.890625 36.5625 -4.203125 L 36.5625 0 Z M 3.78125 0 "/></g></g></g><g fill="#ffffff" fill-opacity="1"><g transform="translate(135.243538, 292.865254)"><g><path d="M 5.109375 0 L 0.953125 0 L 17.078125 -45.078125 L 16.078125 -47.296875 L 20.25 -47.296875 L 41.34375 0 L 37.171875 0 L 33.71875 -7.703125 C 33.15625 -9.003906 32.320312 -10.171875 31.21875 -11.203125 C 30.113281 -12.242188 28.863281 -13.128906 27.46875 -13.859375 C 26.082031 -14.585938 24.648438 -15.140625 23.171875 -15.515625 C 21.691406 -15.890625 20.289062 -16.078125 18.96875 -16.078125 C 17.457031 -16.078125 15.96875 -15.835938 14.5 -15.359375 C 13.03125 -14.890625 11.601562 -14.15625 10.21875 -13.15625 C 9.707031 -12.769531 9.203125 -12.144531 8.703125 -11.28125 C 8.203125 -10.414062 7.835938 -9.601562 7.609375 -8.84375 Z M 10.265625 -17.921875 C 10.046875 -17.078125 10.125 -16.65625 10.5 -16.65625 C 10.6875 -16.65625 11.035156 -16.78125 11.546875 -17.03125 C 12.484375 -17.5625 13.457031 -17.945312 14.46875 -18.1875 C 15.476562 -18.425781 16.503906 -18.546875 17.546875 -18.546875 C 19.785156 -18.546875 21.992188 -18.070312 24.171875 -17.125 C 26.347656 -16.175781 28.332031 -14.960938 30.125 -13.484375 C 30.664062 -13.035156 31.003906 -12.867188 31.140625 -12.984375 C 31.285156 -13.097656 31.21875 -13.46875 30.9375 -14.09375 L 18.734375 -41.4375 C 18.441406 -42.09375 18.140625 -42.421875 17.828125 -42.421875 C 17.515625 -42.421875 17.234375 -42.046875 16.984375 -41.296875 Z M 10.265625 -17.921875 "/></g></g></g><g fill="#ffffff" fill-opacity="1"><g transform="translate(176.721623, 292.865254)"><g><path d="M 0.140625 -47.296875 L 4.296875 -47.296875 L 22.75 -5.859375 C 23.03125 -5.203125 23.328125 -4.875 23.640625 -4.875 C 23.992188 -4.875 24.28125 -5.25 24.5 -6 L 29.140625 -22.140625 C 29.328125 -22.828125 29.394531 -23.582031 29.34375 -24.40625 C 29.300781 -25.226562 29.132812 -25.953125 28.84375 -26.578125 L 19.578125 -47.296875 L 23.75 -47.296875 L 30.453125 -32.25 C 30.742188 -31.625 31.03125 -31.3125 31.3125 -31.3125 C 31.625 -31.3125 31.875 -31.65625 32.0625 -32.34375 L 36.375 -47.296875 L 40.53125 -47.296875 L 33.90625 -28.515625 C 33.6875 -27.859375 33.582031 -27.117188 33.59375 -26.296875 C 33.613281 -25.472656 33.765625 -24.75 34.046875 -24.125 L 42.1875 -5.859375 C 42.46875 -5.203125 42.769531 -4.875 43.09375 -4.875 C 43.4375 -4.875 43.71875 -5.25 43.9375 -6 L 55.8125 -47.296875 L 59.96875 -47.296875 L 43.234375 0 L 40.671875 0 L 32.203125 -18.921875 C 31.921875 -19.546875 31.609375 -19.859375 31.265625 -19.859375 C 30.984375 -19.859375 30.710938 -19.53125 30.453125 -18.875 L 23.796875 0 L 21.234375 0 Z M 0.140625 -47.296875 "/></g></g></g><g fill="#ffffff" fill-opacity="1"><g transform="translate(237.638125, 292.865254)"><g><path d="M 5.109375 0 L 0.953125 0 L 17.078125 -45.078125 L 16.078125 -47.296875 L 20.25 -47.296875 L 41.34375 0 L 37.171875 0 L 33.71875 -7.703125 C 33.15625 -9.003906 32.320312 -10.171875 31.21875 -11.203125 C 30.113281 -12.242188 28.863281 -13.128906 27.46875 -13.859375 C 26.082031 -14.585938 24.648438 -15.140625 23.171875 -15.515625 C 21.691406 -15.890625 20.289062 -16.078125 18.96875 -16.078125 C 17.457031 -16.078125 15.96875 -15.835938 14.5 -15.359375 C 13.03125 -14.890625 11.601562 -14.15625 10.21875 -13.15625 C 9.707031 -12.769531 9.203125 -12.144531 8.703125 -11.28125 C 8.203125 -10.414062 7.835938 -9.601562 7.609375 -8.84375 Z M 10.265625 -17.921875 C 10.046875 -17.078125 10.125 -16.65625 10.5 -16.65625 C 10.6875 -16.65625 11.035156 -16.78125 11.546875 -17.03125 C 12.484375 -17.5625 13.457031 -17.945312 14.46875 -18.1875 C 15.476562 -18.425781 16.503906 -18.546875 17.546875 -18.546875 C 19.785156 -18.546875 21.992188 -18.070312 24.171875 -17.125 C 26.347656 -16.175781 28.332031 -14.960938 30.125 -13.484375 C 30.664062 -13.035156 31.003906 -12.867188 31.140625 -12.984375 C 31.285156 -13.097656 31.21875 -13.46875 30.9375 -14.09375 L 18.734375 -41.4375 C 18.441406 -42.09375 18.140625 -42.421875 17.828125 -42.421875 C 17.515625 -42.421875 17.234375 -42.046875 16.984375 -41.296875 Z M 10.265625 -17.921875 "/></g></g></g><g fill="#ffffff" fill-opacity="1"><g transform="translate(279.116211, 292.865254)"><g><path d="M 16.40625 -23.984375 L 0.140625 -47.296875 L 4.15625 -47.296875 L 19.71875 -24.6875 C 20.101562 -24.125 20.484375 -23.84375 20.859375 -23.84375 C 21.328125 -23.84375 21.738281 -24.15625 22.09375 -24.78125 L 34.953125 -47.296875 L 39.015625 -47.296875 L 22.75 -23.984375 C 22.34375 -23.410156 22.023438 -22.722656 21.796875 -21.921875 C 21.578125 -21.117188 21.46875 -20.351562 21.46875 -19.625 L 21.46875 0 L 17.6875 0 L 17.6875 -19.625 C 17.6875 -20.351562 17.578125 -21.117188 17.359375 -21.921875 C 17.140625 -22.722656 16.820312 -23.410156 16.40625 -23.984375 Z M 16.40625 -23.984375 "/></g></g></g><g fill="#ffffff" fill-opacity="1"><g transform="translate(62.618689, 322.462671)"><g><path d="M 10.28125 -13.859375 L 10.140625 -12.515625 L 7.6875 -12.640625 L 6.265625 -12.640625 L 6.203125 -4.375 L 6.265625 0 L 4.484375 0 L 4.625 -4.234375 L 4.515625 -12.640625 L 3.09375 -12.640625 L 0.59375 -12.515625 L 0.484375 -12.6875 L 0.609375 -14.046875 L 10.140625 -14.046875 Z M 10.28125 -13.859375 "/></g></g></g><g fill="#ffffff" fill-opacity="1"><g transform="translate(80.447213, 322.462671)"><g><path d="M 10.0625 -1.359375 L 9.921875 0 L 2.03125 0 L 2.140625 -4.234375 L 2.03125 -14.046875 L 9.953125 -14.046875 L 10.03125 -13.859375 L 9.90625 -12.515625 L 6.59375 -12.578125 L 3.8125 -12.53125 L 3.765625 -7.9375 L 6.390625 -7.890625 L 8.71875 -7.953125 L 8.84375 -7.796875 L 8.703125 -6.4375 L 6.25 -6.484375 L 3.75 -6.46875 L 3.71875 -4.375 L 3.796875 -1.46875 L 6.578125 -1.453125 L 9.953125 -1.53125 Z M 10.0625 -1.359375 "/></g></g></g><g fill="#ffffff" fill-opacity="1"><g transform="translate(98.100538, 322.462671)"><g><path d="M 7.046875 -14.15625 C 8.523438 -14.15625 9.804688 -13.800781 10.890625 -13.09375 L 10.53125 -11.5 L 10.34375 -11.453125 C 9.363281 -12.273438 8.238281 -12.6875 6.96875 -12.6875 C 5.582031 -12.6875 4.515625 -12.207031 3.765625 -11.25 C 3.023438 -10.289062 2.65625 -8.890625 2.65625 -7.046875 C 2.65625 -5.191406 3.023438 -3.773438 3.765625 -2.796875 C 4.515625 -1.828125 5.566406 -1.34375 6.921875 -1.34375 C 7.566406 -1.34375 8.207031 -1.457031 8.84375 -1.6875 C 9.476562 -1.914062 10.054688 -2.242188 10.578125 -2.671875 L 10.796875 -2.5625 L 10.640625 -0.890625 C 9.367188 -0.191406 8.078125 0.15625 6.765625 0.15625 C 4.878906 0.15625 3.414062 -0.453125 2.375 -1.671875 C 1.34375 -2.890625 0.828125 -4.632812 0.828125 -6.90625 C 0.828125 -9.226562 1.367188 -11.015625 2.453125 -12.265625 C 3.535156 -13.523438 5.066406 -14.15625 7.046875 -14.15625 Z M 7.046875 -14.15625 "/></g></g></g><g fill="#ffffff" fill-opacity="1"><g transform="translate(116.58609, 322.462671)"><g><path d="M 12.84375 -4.375 L 12.875 0 L 11.15625 0 L 11.234375 -4.234375 L 11.21875 -6.328125 L 7.3125 -6.359375 L 3.75 -6.328125 L 3.71875 -4.375 L 3.796875 0 L 2.0625 0 L 2.125 -4.234375 L 2.0625 -14.046875 L 3.8125 -14.046875 L 3.75 -7.828125 L 7.46875 -7.796875 L 11.21875 -7.828125 L 11.15625 -14.046875 L 12.921875 -14.046875 Z M 12.84375 -4.375 "/></g></g></g><g fill="#ffffff" fill-opacity="1"><g transform="translate(138.663353, 322.462671)"><g/></g></g><g fill="#ffffff" fill-opacity="1"><g transform="translate(149.374153, 322.462671)"><g><path d="M 5.84375 -14.15625 C 6.851562 -14.15625 7.898438 -13.9375 8.984375 -13.5 L 8.703125 -11.8125 L 8.390625 -11.71875 C 7.960938 -12.039062 7.507812 -12.289062 7.03125 -12.46875 C 6.5625 -12.644531 6.09375 -12.734375 5.625 -12.734375 C 5.082031 -12.734375 4.609375 -12.617188 4.203125 -12.390625 C 3.804688 -12.171875 3.503906 -11.882812 3.296875 -11.53125 C 3.085938 -11.1875 2.984375 -10.828125 2.984375 -10.453125 C 2.984375 -10.054688 3.101562 -9.707031 3.34375 -9.40625 C 3.582031 -9.101562 3.882812 -8.84375 4.25 -8.625 C 4.613281 -8.40625 5.109375 -8.144531 5.734375 -7.84375 C 6.523438 -7.476562 7.160156 -7.140625 7.640625 -6.828125 C 8.128906 -6.515625 8.539062 -6.113281 8.875 -5.625 C 9.21875 -5.144531 9.390625 -4.5625 9.390625 -3.875 C 9.390625 -3.144531 9.191406 -2.472656 8.796875 -1.859375 C 8.410156 -1.242188 7.859375 -0.753906 7.140625 -0.390625 C 6.421875 -0.0234375 5.601562 0.15625 4.6875 0.15625 C 4.070312 0.15625 3.429688 0.0703125 2.765625 -0.09375 C 2.109375 -0.257812 1.492188 -0.503906 0.921875 -0.828125 L 1.140625 -2.625 L 1.375 -2.734375 C 1.882812 -2.242188 2.453125 -1.875 3.078125 -1.625 C 3.703125 -1.382812 4.296875 -1.265625 4.859375 -1.265625 C 5.421875 -1.265625 5.914062 -1.375 6.34375 -1.59375 C 6.769531 -1.8125 7.097656 -2.101562 7.328125 -2.46875 C 7.554688 -2.832031 7.671875 -3.222656 7.671875 -3.640625 C 7.671875 -4.253906 7.4375 -4.742188 6.96875 -5.109375 C 6.5 -5.484375 5.789062 -5.890625 4.84375 -6.328125 C 4.070312 -6.710938 3.453125 -7.050781 2.984375 -7.34375 C 2.515625 -7.644531 2.109375 -8.03125 1.765625 -8.5 C 1.429688 -8.976562 1.265625 -9.5625 1.265625 -10.25 C 1.265625 -10.96875 1.457031 -11.625 1.84375 -12.21875 C 2.238281 -12.820312 2.78125 -13.296875 3.46875 -13.640625 C 4.164062 -13.984375 4.957031 -14.15625 5.84375 -14.15625 Z M 5.84375 -14.15625 "/></g></g></g><g fill="#ffffff" fill-opacity="1"><g transform="translate(166.808473, 322.462671)"><g><path d="M 7.125 -14.171875 C 9.050781 -14.171875 10.523438 -13.578125 11.546875 -12.390625 C 12.578125 -11.210938 13.09375 -9.515625 13.09375 -7.296875 C 13.09375 -4.898438 12.546875 -3.054688 11.453125 -1.765625 C 10.359375 -0.472656 8.796875 0.171875 6.765625 0.171875 C 4.867188 0.171875 3.40625 -0.4375 2.375 -1.65625 C 1.34375 -2.882812 0.828125 -4.632812 0.828125 -6.90625 C 0.828125 -9.238281 1.367188 -11.03125 2.453125 -12.28125 C 3.546875 -13.539062 5.101562 -14.171875 7.125 -14.171875 Z M 7.015625 -12.75 C 4.085938 -12.75 2.625 -10.863281 2.625 -7.09375 C 2.625 -5.09375 2.976562 -3.609375 3.6875 -2.640625 C 4.394531 -1.679688 5.46875 -1.203125 6.90625 -1.203125 C 9.820312 -1.203125 11.28125 -3.125 11.28125 -6.96875 C 11.28125 -8.925781 10.925781 -10.378906 10.21875 -11.328125 C 9.507812 -12.273438 8.441406 -12.75 7.015625 -12.75 Z M 7.015625 -12.75 "/></g></g></g><g fill="#ffffff" fill-opacity="1"><g transform="translate(187.812599, 322.462671)"><g><path d="M 9.046875 -1.3125 L 8.890625 0 L 1.96875 0 L 2.078125 -4.234375 L 1.96875 -14.046875 L 3.765625 -14.046875 L 3.65625 -4.375 L 3.71875 -1.46875 L 8.921875 -1.46875 Z M 9.046875 -1.3125 "/></g></g></g><g fill="#ffffff" fill-opacity="1"><g transform="translate(204.020473, 322.462671)"><g><path d="M 12.0625 -6.90625 L 12.046875 -5.328125 C 12.078125 -3.597656 11.625 -2.25 10.6875 -1.28125 C 9.75 -0.320312 8.421875 0.15625 6.703125 0.15625 C 5.054688 0.15625 3.789062 -0.300781 2.90625 -1.21875 C 2.019531 -2.144531 1.59375 -3.445312 1.625 -5.125 L 1.640625 -7.03125 L 1.625 -14.046875 L 3.359375 -14.046875 L 3.28125 -5.34375 C 3.269531 -4.03125 3.5625 -3.039062 4.15625 -2.375 C 4.757812 -1.707031 5.648438 -1.375 6.828125 -1.375 C 8.015625 -1.375 8.914062 -1.6875 9.53125 -2.3125 C 10.144531 -2.945312 10.441406 -3.882812 10.421875 -5.125 L 10.34375 -14.046875 L 12.09375 -14.046875 Z M 12.0625 -6.90625 "/></g></g></g><g fill="#ffffff" fill-opacity="1"><g transform="translate(224.827497, 322.462671)"><g><path d="M 10.28125 -13.859375 L 10.140625 -12.515625 L 7.6875 -12.640625 L 6.265625 -12.640625 L 6.203125 -4.375 L 6.265625 0 L 4.484375 0 L 4.625 -4.234375 L 4.515625 -12.640625 L 3.09375 -12.640625 L 0.59375 -12.515625 L 0.484375 -12.6875 L 0.609375 -14.046875 L 10.140625 -14.046875 Z M 10.28125 -13.859375 "/></g></g></g><g fill="#ffffff" fill-opacity="1"><g transform="translate(242.656021, 322.462671)"><g><path d="M 3.71875 -4.375 L 3.8125 0 L 2.03125 0 L 2.140625 -4.234375 L 2.03125 -14.046875 L 3.828125 -14.046875 Z M 3.71875 -4.375 "/></g></g></g><g fill="#ffffff" fill-opacity="1"><g transform="translate(255.622596, 322.462671)"><g><path d="M 7.125 -14.171875 C 9.050781 -14.171875 10.523438 -13.578125 11.546875 -12.390625 C 12.578125 -11.210938 13.09375 -9.515625 13.09375 -7.296875 C 13.09375 -4.898438 12.546875 -3.054688 11.453125 -1.765625 C 10.359375 -0.472656 8.796875 0.171875 6.765625 0.171875 C 4.867188 0.171875 3.40625 -0.4375 2.375 -1.65625 C 1.34375 -2.882812 0.828125 -4.632812 0.828125 -6.90625 C 0.828125 -9.238281 1.367188 -11.03125 2.453125 -12.28125 C 3.546875 -13.539062 5.101562 -14.171875 7.125 -14.171875 Z M 7.015625 -12.75 C 4.085938 -12.75 2.625 -10.863281 2.625 -7.09375 C 2.625 -5.09375 2.976562 -3.609375 3.6875 -2.640625 C 4.394531 -1.679688 5.46875 -1.203125 6.90625 -1.203125 C 9.820312 -1.203125 11.28125 -3.125 11.28125 -6.96875 C 11.28125 -8.925781 10.925781 -10.378906 10.21875 -11.328125 C 9.507812 -12.273438 8.441406 -12.75 7.015625 -12.75 Z M 7.015625 -12.75 "/></g></g></g><g fill="#ffffff" fill-opacity="1"><g transform="translate(276.626722, 322.462671)"><g><path d="M 12.8125 -4.125 L 12.859375 0 L 11.015625 0 L 3.75 -11.234375 L 3.640625 -11.234375 L 3.609375 -4.625 L 3.640625 0 L 2.0625 0 L 2.125 -4.15625 L 2.078125 -14.046875 L 3.90625 -14.046875 L 11.15625 -2.796875 L 11.296875 -2.796875 L 11.28125 -13.953125 L 12.921875 -14.078125 Z M 12.8125 -4.125 "/></g></g></g><g fill="#ffffff" fill-opacity="1"><g transform="translate(298.682081, 322.462671)"><g><path d="M 5.84375 -14.15625 C 6.851562 -14.15625 7.898438 -13.9375 8.984375 -13.5 L 8.703125 -11.8125 L 8.390625 -11.71875 C 7.960938 -12.039062 7.507812 -12.289062 7.03125 -12.46875 C 6.5625 -12.644531 6.09375 -12.734375 5.625 -12.734375 C 5.082031 -12.734375 4.609375 -12.617188 4.203125 -12.390625 C 3.804688 -12.171875 3.503906 -11.882812 3.296875 -11.53125 C 3.085938 -11.1875 2.984375 -10.828125 2.984375 -10.453125 C 2.984375 -10.054688 3.101562 -9.707031 3.34375 -9.40625 C 3.582031 -9.101562 3.882812 -8.84375 4.25 -8.625 C 4.613281 -8.40625 5.109375 -8.144531 5.734375 -7.84375 C 6.523438 -7.476562 7.160156 -7.140625 7.640625 -6.828125 C 8.128906 -6.515625 8.539062 -6.113281 8.875 -5.625 C 9.21875 -5.144531 9.390625 -4.5625 9.390625 -3.875 C 9.390625 -3.144531 9.191406 -2.472656 8.796875 -1.859375 C 8.410156 -1.242188 7.859375 -0.753906 7.140625 -0.390625 C 6.421875 -0.0234375 5.601562 0.15625 4.6875 0.15625 C 4.070312 0.15625 3.429688 0.0703125 2.765625 -0.09375 C 2.109375 -0.257812 1.492188 -0.503906 0.921875 -0.828125 L 1.140625 -2.625 L 1.375 -2.734375 C 1.882812 -2.242188 2.453125 -1.875 3.078125 -1.625 C 3.703125 -1.382812 4.296875 -1.265625 4.859375 -1.265625 C 5.421875 -1.265625 5.914062 -1.375 6.34375 -1.59375 C 6.769531 -1.8125 7.097656 -2.101562 7.328125 -2.46875 C 7.554688 -2.832031 7.671875 -3.222656 7.671875 -3.640625 C 7.671875 -4.253906 7.4375 -4.742188 6.96875 -5.109375 C 6.5 -5.484375 5.789062 -5.890625 4.84375 -6.328125 C 4.070312 -6.710938 3.453125 -7.050781 2.984375 -7.34375 C 2.515625 -7.644531 2.109375 -8.03125 1.765625 -8.5 C 1.429688 -8.976562 1.265625 -9.5625 1.265625 -10.25 C 1.265625 -10.96875 1.457031 -11.625 1.84375 -12.21875 C 2.238281 -12.820312 2.78125 -13.296875 3.46875 -13.640625 C 4.164062 -13.984375 4.957031 -14.15625 5.84375 -14.15625 Z M 5.84375 -14.15625 "/></g></g></g></svg>