<svg xmlns="http://www.w3.org/2000/svg" xmlns:xlink="http://www.w3.org/1999/xlink" width="500" zoomAndPan="magnify" viewBox="0 0 375 374.999991" height="500" preserveAspectRatio="xMidYMid meet" version="1.0"><defs><g/><clipPath id="bbd3fc43c3"><path d="M 82.796875 20.117188 L 292.046875 20.117188 L 292.046875 276.617188 L 82.796875 276.617188 Z M 82.796875 20.117188 " clip-rule="nonzero"/></clipPath></defs><g clip-path="url(#bbd3fc43c3)"><path fill="#ffffff" d="M 253.253906 114.3125 L 187.496094 20.15625 L 82.800781 170.074219 L 128.421875 216.339844 C 128.941406 216.898438 129.460938 217.429688 129.984375 217.925781 L 187.496094 276.246094 L 292.195312 170.074219 L 253.410156 114.542969 L 253.453125 114.496094 C 253.386719 114.433594 253.316406 114.375 253.253906 114.3125 Z M 243.941406 108.5 C 240.121094 107.058594 235.867188 106.355469 231.289062 106.449219 C 218.390625 106.710938 197.015625 113.378906 167.992188 143.3125 C 165.273438 140.566406 159.429688 135.328125 151.269531 131.6875 C 142.378906 127.722656 129.28125 125.121094 114.300781 132.492188 L 187.496094 27.675781 Z M 108.539062 141.253906 C 121.902344 131.554688 135.609375 129.699219 149.28125 135.742188 C 156.886719 139.105469 162.410156 144.105469 164.847656 146.566406 C 148.910156 162.730469 131.070312 171.28125 111.796875 171.992188 C 101.058594 172.394531 92.753906 170.113281 88.9375 168.800781 L 108.351562 141 Z M 131.238281 212.742188 L 131.066406 212.890625 L 124.589844 206.324219 C 126.542969 206.691406 128.820312 206.941406 131.410156 206.941406 C 139.984375 206.941406 153.886719 204.097656 171.429688 190.550781 C 184.703125 180.300781 218.082031 157.292969 241.234375 165.0625 C 251.605469 168.542969 258.949219 177.984375 263.066406 193.117188 L 263.558594 192.984375 L 239.597656 217.28125 C 239.871094 209.667969 237.757812 204.0625 233.261719 200.589844 C 221.875 191.777344 198.671875 199.535156 181.210938 207.59375 C 148.347656 222.761719 139.546875 222.128906 131.238281 212.742188 Z M 141.808594 223.785156 C 142.835938 223.921875 143.898438 223.992188 145 223.992188 C 145.785156 223.992188 146.59375 223.960938 147.421875 223.894531 C 155.246094 223.273438 165.914062 219.625 183.101562 211.691406 C 206.183594 201.039062 223.015625 198.363281 230.5 204.15625 C 234.667969 207.378906 236.019531 213.523438 234.53125 222.417969 L 187.496094 270.113281 Z M 286.613281 169.605469 L 266.78125 189.714844 C 262.121094 174.324219 254.019531 164.59375 242.667969 160.785156 C 218.367188 152.628906 185.875 173.699219 168.671875 186.980469 C 152.320312 199.609375 139.578125 202.351562 131.769531 202.429688 C 123.40625 202.511719 118.777344 199.632812 118.730469 199.605469 L 118.429688 200.078125 L 93.496094 174.792969 C 97.59375 175.738281 102.96875 176.554688 109.273438 176.554688 C 110.074219 176.554688 110.894531 176.542969 111.722656 176.515625 C 126.289062 176.023438 148.148438 170.707031 169.59375 148.15625 C 181.695312 135.429688 193.480469 125.78125 204.609375 119.480469 C 214.304688 113.992188 223.308594 111.128906 231.378906 110.964844 C 239.019531 110.8125 245.574219 113.152344 250.308594 117.742188 L 250.351562 117.695312 Z M 286.613281 169.605469 " fill-opacity="1" fill-rule="nonzero"/></g><g fill="#ffffff" fill-opacity="1"><g transform="translate(69.444304, 326.641015)"><g><path d="M 2.3125 -8.84375 C 2.3125 -9.957031 2.625 -10.863281 3.25 -11.5625 C 3.875 -12.269531 4.59375 -12.625 5.40625 -12.625 C 6.050781 -12.625 6.648438 -12.382812 7.203125 -11.90625 C 6.585938 -11.707031 6.15625 -11.359375 5.90625 -10.859375 C 5.65625 -10.359375 5.53125 -9.785156 5.53125 -9.140625 C 5.53125 -8.023438 5.914062 -6.921875 6.6875 -5.828125 C 7.457031 -4.734375 8.5 -3.742188 9.8125 -2.859375 C 11.125 -1.984375 12.625 -1.285156 14.3125 -0.765625 C 16.007812 -0.253906 17.78125 0 19.625 0 C 21.4375 0 23.164062 -0.222656 24.8125 -0.671875 C 26.46875 -1.117188 27.941406 -1.78125 29.234375 -2.65625 C 30.535156 -3.539062 31.554688 -4.628906 32.296875 -5.921875 C 33.035156 -7.222656 33.40625 -8.742188 33.40625 -10.484375 C 33.40625 -12.210938 33.0625 -13.648438 32.375 -14.796875 C 31.695312 -15.941406 30.765625 -16.859375 29.578125 -17.546875 C 28.390625 -18.234375 27.03125 -18.773438 25.5 -19.171875 C 23.976562 -19.578125 22.375 -19.910156 20.6875 -20.171875 C 19 -20.441406 17.316406 -20.71875 15.640625 -21 C 13.960938 -21.28125 12.359375 -21.644531 10.828125 -22.09375 C 9.304688 -22.539062 7.953125 -23.140625 6.765625 -23.890625 C 5.578125 -24.648438 4.640625 -25.632812 3.953125 -26.84375 C 3.273438 -28.0625 2.9375 -29.59375 2.9375 -31.4375 C 2.9375 -33.476562 3.425781 -35.21875 4.40625 -36.65625 C 5.382812 -38.09375 6.679688 -39.257812 8.296875 -40.15625 C 9.921875 -41.050781 11.71875 -41.707031 13.6875 -42.125 C 15.65625 -42.550781 17.617188 -42.765625 19.578125 -42.765625 C 21.253906 -42.765625 22.984375 -42.628906 24.765625 -42.359375 C 26.554688 -42.097656 28.234375 -41.671875 29.796875 -41.078125 C 31.367188 -40.492188 32.632812 -39.738281 33.59375 -38.8125 C 34.5625 -37.894531 35.046875 -36.765625 35.046875 -35.421875 C 35.046875 -34.773438 34.921875 -34.207031 34.671875 -33.71875 C 34.421875 -33.238281 33.988281 -32.882812 33.375 -32.65625 C 32.976562 -34.613281 32.066406 -36.273438 30.640625 -37.640625 C 29.210938 -39.015625 27.472656 -40.070312 25.421875 -40.8125 C 23.367188 -41.550781 21.179688 -41.921875 18.859375 -41.921875 C 14.890625 -41.921875 11.738281 -41.039062 9.40625 -39.28125 C 7.070312 -37.519531 5.90625 -34.976562 5.90625 -31.65625 C 5.90625 -30.195312 6.332031 -29.035156 7.1875 -28.171875 C 8.039062 -27.304688 9.191406 -26.613281 10.640625 -26.09375 C 12.097656 -25.582031 13.734375 -25.15625 15.546875 -24.8125 C 17.367188 -24.476562 19.242188 -24.148438 21.171875 -23.828125 C 23.097656 -23.503906 24.96875 -23.082031 26.78125 -22.5625 C 28.601562 -22.050781 30.238281 -21.351562 31.6875 -20.46875 C 33.144531 -19.59375 34.300781 -18.445312 35.15625 -17.03125 C 36.007812 -15.625 36.4375 -13.832031 36.4375 -11.65625 C 36.4375 -9.53125 35.957031 -7.675781 35 -6.09375 C 34.050781 -4.519531 32.773438 -3.222656 31.171875 -2.203125 C 29.566406 -1.179688 27.765625 -0.421875 25.765625 0.078125 C 23.765625 0.585938 21.71875 0.84375 19.625 0.84375 C 16.207031 0.84375 13.191406 0.4375 10.578125 -0.375 C 7.972656 -1.1875 5.941406 -2.328125 4.484375 -3.796875 C 3.035156 -5.265625 2.3125 -6.945312 2.3125 -8.84375 Z M 2.3125 -8.84375 "/></g></g></g><g fill="#ffffff" fill-opacity="1"><g transform="translate(107.780431, 326.641015)"><g><path d="M 3.359375 0 L 3.359375 -41.921875 L 32.40625 -41.921875 L 32.40625 -38.1875 C 31.539062 -38.46875 30.421875 -38.75 29.046875 -39.03125 C 27.679688 -39.3125 26.160156 -39.578125 24.484375 -39.828125 C 22.804688 -40.078125 21.050781 -40.289062 19.21875 -40.46875 C 17.382812 -40.65625 15.585938 -40.800781 13.828125 -40.90625 C 12.066406 -41.019531 10.421875 -41.078125 8.890625 -41.078125 C 8.128906 -41.078125 7.566406 -40.890625 7.203125 -40.515625 C 6.847656 -40.140625 6.671875 -39.378906 6.671875 -38.234375 L 6.671875 -24.984375 C 6.671875 -24.367188 6.863281 -23.863281 7.25 -23.46875 C 7.644531 -23.082031 8.148438 -22.890625 8.765625 -22.890625 L 28.296875 -22.890625 L 28.296875 -19.375 C 27.066406 -19.675781 25.582031 -19.972656 23.84375 -20.265625 C 22.113281 -20.554688 20.3125 -20.828125 18.4375 -21.078125 C 16.570312 -21.335938 14.789062 -21.535156 13.09375 -21.671875 C 11.40625 -21.816406 9.972656 -21.890625 8.796875 -21.890625 C 8.179688 -21.890625 7.675781 -21.738281 7.28125 -21.4375 C 6.894531 -21.144531 6.703125 -20.675781 6.703125 -20.03125 L 6.671875 -3.6875 C 6.671875 -2.570312 6.847656 -1.816406 7.203125 -1.421875 C 7.566406 -1.035156 8.128906 -0.84375 8.890625 -0.84375 C 10.421875 -0.84375 12.066406 -0.894531 13.828125 -1 C 15.585938 -1.113281 17.382812 -1.257812 19.21875 -1.4375 C 21.050781 -1.625 22.804688 -1.84375 24.484375 -2.09375 C 26.160156 -2.34375 27.679688 -2.609375 29.046875 -2.890625 C 30.421875 -3.171875 31.539062 -3.453125 32.40625 -3.734375 L 32.40625 0 Z M 3.359375 0 "/></g></g></g><g fill="#ffffff" fill-opacity="1"><g transform="translate(142.680982, 326.641015)"><g><path d="M 4.53125 0 L 0.84375 0 L 15.140625 -39.953125 L 14.25 -41.921875 L 17.9375 -41.921875 L 36.640625 0 L 32.953125 0 L 29.890625 -6.828125 C 29.390625 -7.972656 28.648438 -9.003906 27.671875 -9.921875 C 26.691406 -10.847656 25.585938 -11.632812 24.359375 -12.28125 C 23.128906 -12.925781 21.859375 -13.414062 20.546875 -13.75 C 19.234375 -14.082031 17.988281 -14.25 16.8125 -14.25 C 15.46875 -14.25 14.144531 -14.039062 12.84375 -13.625 C 11.550781 -13.207031 10.289062 -12.550781 9.0625 -11.65625 C 8.613281 -11.320312 8.164062 -10.769531 7.71875 -10 C 7.269531 -9.226562 6.945312 -8.507812 6.75 -7.84375 Z M 9.09375 -15.890625 C 8.894531 -15.128906 8.96875 -14.75 9.3125 -14.75 C 9.476562 -14.75 9.785156 -14.863281 10.234375 -15.09375 C 11.066406 -15.5625 11.929688 -15.898438 12.828125 -16.109375 C 13.722656 -16.328125 14.628906 -16.4375 15.546875 -16.4375 C 17.535156 -16.4375 19.492188 -16.015625 21.421875 -15.171875 C 23.347656 -14.335938 25.109375 -13.265625 26.703125 -11.953125 C 27.179688 -11.554688 27.484375 -11.40625 27.609375 -11.5 C 27.734375 -11.601562 27.671875 -11.9375 27.421875 -12.5 L 16.59375 -36.71875 C 16.34375 -37.3125 16.078125 -37.609375 15.796875 -37.609375 C 15.523438 -37.609375 15.273438 -37.269531 15.046875 -36.59375 Z M 9.09375 -15.890625 "/></g></g></g><g fill="#ffffff" fill-opacity="1"><g transform="translate(179.425015, 326.641015)"><g><path d="M 0.125 -41.921875 L 3.8125 -41.921875 L 20.171875 -5.203125 C 20.421875 -4.609375 20.679688 -4.3125 20.953125 -4.3125 C 21.265625 -4.3125 21.519531 -4.648438 21.71875 -5.328125 L 25.828125 -19.625 C 25.992188 -20.238281 26.054688 -20.90625 26.015625 -21.625 C 25.972656 -22.351562 25.828125 -23 25.578125 -23.5625 L 17.359375 -41.921875 L 21.046875 -41.921875 L 27 -28.59375 C 27.25 -28.03125 27.5 -27.75 27.75 -27.75 C 28.03125 -27.75 28.253906 -28.054688 28.421875 -28.671875 L 32.234375 -41.921875 L 35.921875 -41.921875 L 30.0625 -25.28125 C 29.863281 -24.695312 29.769531 -24.039062 29.78125 -23.3125 C 29.800781 -22.582031 29.9375 -21.9375 30.1875 -21.375 L 37.390625 -5.203125 C 37.640625 -4.609375 37.90625 -4.3125 38.1875 -4.3125 C 38.5 -4.3125 38.753906 -4.648438 38.953125 -5.328125 L 49.46875 -41.921875 L 53.15625 -41.921875 L 38.3125 0 L 36.046875 0 L 28.546875 -16.765625 C 28.296875 -17.328125 28.015625 -17.609375 27.703125 -17.609375 C 27.453125 -17.609375 27.21875 -17.316406 27 -16.734375 L 21.09375 0 L 18.828125 0 Z M 0.125 -41.921875 "/></g></g></g><g fill="#ffffff" fill-opacity="1"><g transform="translate(233.388878, 326.641015)"><g><path d="M 4.53125 0 L 0.84375 0 L 15.140625 -39.953125 L 14.25 -41.921875 L 17.9375 -41.921875 L 36.640625 0 L 32.953125 0 L 29.890625 -6.828125 C 29.390625 -7.972656 28.648438 -9.003906 27.671875 -9.921875 C 26.691406 -10.847656 25.585938 -11.632812 24.359375 -12.28125 C 23.128906 -12.925781 21.859375 -13.414062 20.546875 -13.75 C 19.234375 -14.082031 17.988281 -14.25 16.8125 -14.25 C 15.46875 -14.25 14.144531 -14.039062 12.84375 -13.625 C 11.550781 -13.207031 10.289062 -12.550781 9.0625 -11.65625 C 8.613281 -11.320312 8.164062 -10.769531 7.71875 -10 C 7.269531 -9.226562 6.945312 -8.507812 6.75 -7.84375 Z M 9.09375 -15.890625 C 8.894531 -15.128906 8.96875 -14.75 9.3125 -14.75 C 9.476562 -14.75 9.785156 -14.863281 10.234375 -15.09375 C 11.066406 -15.5625 11.929688 -15.898438 12.828125 -16.109375 C 13.722656 -16.328125 14.628906 -16.4375 15.546875 -16.4375 C 17.535156 -16.4375 19.492188 -16.015625 21.421875 -15.171875 C 23.347656 -14.335938 25.109375 -13.265625 26.703125 -11.953125 C 27.179688 -11.554688 27.484375 -11.40625 27.609375 -11.5 C 27.734375 -11.601562 27.671875 -11.9375 27.421875 -12.5 L 16.59375 -36.71875 C 16.34375 -37.3125 16.078125 -37.609375 15.796875 -37.609375 C 15.523438 -37.609375 15.273438 -37.269531 15.046875 -36.59375 Z M 9.09375 -15.890625 "/></g></g></g><g fill="#ffffff" fill-opacity="1"><g transform="translate(270.13291, 326.641015)"><g><path d="M 14.546875 -21.25 L 0.125 -41.921875 L 3.6875 -41.921875 L 17.484375 -21.890625 C 17.816406 -21.378906 18.148438 -21.125 18.484375 -21.125 C 18.898438 -21.125 19.265625 -21.40625 19.578125 -21.96875 L 30.984375 -41.921875 L 34.578125 -41.921875 L 20.171875 -21.25 C 19.804688 -20.75 19.523438 -20.140625 19.328125 -19.421875 C 19.128906 -18.710938 19.03125 -18.035156 19.03125 -17.390625 L 19.03125 0 L 15.671875 0 L 15.671875 -17.390625 C 15.671875 -18.035156 15.570312 -18.710938 15.375 -19.421875 C 15.1875 -20.140625 14.910156 -20.75 14.546875 -21.25 Z M 14.546875 -21.25 "/></g></g></g><g fill="#ffffff" fill-opacity="1"><g transform="translate(89.215844, 349.153756)"><g><path d="M 8.1875 -11.0625 L 8.09375 -9.96875 L 6.125 -10.078125 L 5 -10.078125 L 4.9375 -3.5 L 5 0 L 3.578125 0 L 3.6875 -3.375 L 3.59375 -10.078125 L 2.46875 -10.078125 L 0.46875 -9.96875 L 0.390625 -10.109375 L 0.484375 -11.203125 L 8.09375 -11.203125 Z M 8.1875 -11.0625 "/></g></g></g><g fill="#ffffff" fill-opacity="1"><g transform="translate(103.435916, 349.153756)"><g><path d="M 8.015625 -1.078125 L 7.90625 0 L 1.625 0 L 1.71875 -3.375 L 1.625 -11.203125 L 7.9375 -11.203125 L 8 -11.0625 L 7.890625 -9.96875 L 5.265625 -10.03125 L 3.046875 -9.984375 L 3 -6.328125 L 5.09375 -6.28125 L 6.953125 -6.34375 L 7.0625 -6.21875 L 6.9375 -5.140625 L 4.984375 -5.171875 L 2.984375 -5.15625 L 2.96875 -3.5 L 3.015625 -1.171875 L 5.234375 -1.15625 L 7.9375 -1.21875 Z M 8.015625 -1.078125 "/></g></g></g><g fill="#ffffff" fill-opacity="1"><g transform="translate(117.516281, 349.153756)"><g><path d="M 5.625 -11.28125 C 6.800781 -11.28125 7.820312 -11.003906 8.6875 -10.453125 L 8.40625 -9.171875 L 8.25 -9.140625 C 7.46875 -9.785156 6.570312 -10.109375 5.5625 -10.109375 C 4.445312 -10.109375 3.59375 -9.726562 3 -8.96875 C 2.40625 -8.207031 2.109375 -7.09375 2.109375 -5.625 C 2.109375 -4.144531 2.40625 -3.015625 3 -2.234375 C 3.59375 -1.453125 4.429688 -1.0625 5.515625 -1.0625 C 6.023438 -1.0625 6.535156 -1.15625 7.046875 -1.34375 C 7.554688 -1.53125 8.019531 -1.789062 8.4375 -2.125 L 8.609375 -2.046875 L 8.484375 -0.71875 C 7.472656 -0.15625 6.441406 0.125 5.390625 0.125 C 3.890625 0.125 2.722656 -0.359375 1.890625 -1.328125 C 1.066406 -2.304688 0.65625 -3.695312 0.65625 -5.5 C 0.65625 -7.351562 1.085938 -8.78125 1.953125 -9.78125 C 2.816406 -10.78125 4.039062 -11.28125 5.625 -11.28125 Z M 5.625 -11.28125 "/></g></g></g><g fill="#ffffff" fill-opacity="1"><g transform="translate(132.260267, 349.153756)"><g><path d="M 10.234375 -3.5 L 10.265625 0 L 8.890625 0 L 8.96875 -3.375 L 8.9375 -5.046875 L 5.828125 -5.0625 L 2.984375 -5.046875 L 2.96875 -3.5 L 3.015625 0 L 1.640625 0 L 1.6875 -3.375 L 1.640625 -11.203125 L 3.046875 -11.203125 L 2.984375 -6.234375 L 5.953125 -6.21875 L 8.9375 -6.234375 L 8.890625 -11.203125 L 10.3125 -11.203125 Z M 10.234375 -3.5 "/></g></g></g><g fill="#ffffff" fill-opacity="1"><g transform="translate(149.86833, 349.153756)"><g/></g></g><g fill="#ffffff" fill-opacity="1"><g transform="translate(158.41266, 349.153756)"><g><path d="M 4.671875 -11.28125 C 5.472656 -11.28125 6.300781 -11.109375 7.15625 -10.765625 L 6.9375 -9.421875 L 6.6875 -9.34375 C 6.351562 -9.601562 5.992188 -9.800781 5.609375 -9.9375 C 5.234375 -10.082031 4.859375 -10.15625 4.484375 -10.15625 C 4.054688 -10.15625 3.679688 -10.066406 3.359375 -9.890625 C 3.035156 -9.710938 2.789062 -9.484375 2.625 -9.203125 C 2.457031 -8.921875 2.375 -8.628906 2.375 -8.328125 C 2.375 -8.015625 2.46875 -7.738281 2.65625 -7.5 C 2.851562 -7.257812 3.097656 -7.050781 3.390625 -6.875 C 3.679688 -6.707031 4.078125 -6.5 4.578125 -6.25 C 5.203125 -5.957031 5.707031 -5.6875 6.09375 -5.4375 C 6.476562 -5.1875 6.804688 -4.867188 7.078125 -4.484375 C 7.359375 -4.097656 7.5 -3.632812 7.5 -3.09375 C 7.5 -2.507812 7.335938 -1.972656 7.015625 -1.484375 C 6.703125 -0.992188 6.257812 -0.601562 5.6875 -0.3125 C 5.125 -0.0195312 4.472656 0.125 3.734375 0.125 C 3.242188 0.125 2.734375 0.0546875 2.203125 -0.078125 C 1.679688 -0.210938 1.191406 -0.40625 0.734375 -0.65625 L 0.90625 -2.09375 L 1.09375 -2.1875 C 1.507812 -1.789062 1.960938 -1.492188 2.453125 -1.296875 C 2.953125 -1.109375 3.425781 -1.015625 3.875 -1.015625 C 4.320312 -1.015625 4.71875 -1.097656 5.0625 -1.265625 C 5.40625 -1.441406 5.664062 -1.675781 5.84375 -1.96875 C 6.019531 -2.257812 6.109375 -2.570312 6.109375 -2.90625 C 6.109375 -3.394531 5.921875 -3.785156 5.546875 -4.078125 C 5.179688 -4.378906 4.617188 -4.703125 3.859375 -5.046875 C 3.242188 -5.347656 2.75 -5.617188 2.375 -5.859375 C 2 -6.097656 1.675781 -6.40625 1.40625 -6.78125 C 1.144531 -7.164062 1.015625 -7.628906 1.015625 -8.171875 C 1.015625 -8.742188 1.164062 -9.269531 1.46875 -9.75 C 1.78125 -10.226562 2.210938 -10.601562 2.765625 -10.875 C 3.316406 -11.144531 3.953125 -11.28125 4.671875 -11.28125 Z M 4.671875 -11.28125 "/></g></g></g><g fill="#ffffff" fill-opacity="1"><g transform="translate(172.318395, 349.153756)"><g><path d="M 5.671875 -11.296875 C 7.210938 -11.296875 8.394531 -10.820312 9.21875 -9.875 C 10.039062 -8.9375 10.453125 -7.582031 10.453125 -5.8125 C 10.453125 -3.90625 10.015625 -2.4375 9.140625 -1.40625 C 8.265625 -0.375 7.015625 0.140625 5.390625 0.140625 C 3.878906 0.140625 2.710938 -0.347656 1.890625 -1.328125 C 1.066406 -2.304688 0.65625 -3.695312 0.65625 -5.5 C 0.65625 -7.363281 1.085938 -8.796875 1.953125 -9.796875 C 2.828125 -10.796875 4.066406 -11.296875 5.671875 -11.296875 Z M 5.59375 -10.171875 C 3.257812 -10.171875 2.09375 -8.664062 2.09375 -5.65625 C 2.09375 -4.0625 2.375 -2.878906 2.9375 -2.109375 C 3.507812 -1.335938 4.363281 -0.953125 5.5 -0.953125 C 7.832031 -0.953125 9 -2.488281 9 -5.5625 C 9 -7.113281 8.710938 -8.269531 8.140625 -9.03125 C 7.578125 -9.789062 6.726562 -10.171875 5.59375 -10.171875 Z M 5.59375 -10.171875 "/></g></g></g><g fill="#ffffff" fill-opacity="1"><g transform="translate(189.070729, 349.153756)"><g><path d="M 7.21875 -1.046875 L 7.09375 0 L 1.578125 0 L 1.65625 -3.375 L 1.578125 -11.203125 L 3 -11.203125 L 2.921875 -3.5 L 2.96875 -1.171875 L 7.109375 -1.171875 Z M 7.21875 -1.046875 "/></g></g></g><g fill="#ffffff" fill-opacity="1"><g transform="translate(201.998483, 349.153756)"><g><path d="M 9.625 -5.5 L 9.609375 -4.25 C 9.628906 -2.875 9.265625 -1.800781 8.515625 -1.03125 C 7.773438 -0.257812 6.71875 0.125 5.34375 0.125 C 4.03125 0.125 3.019531 -0.238281 2.3125 -0.96875 C 1.601562 -1.707031 1.265625 -2.75 1.296875 -4.09375 L 1.3125 -5.609375 L 1.296875 -11.203125 L 2.671875 -11.203125 L 2.625 -4.265625 C 2.613281 -3.210938 2.84375 -2.421875 3.3125 -1.890625 C 3.789062 -1.359375 4.503906 -1.09375 5.453125 -1.09375 C 6.390625 -1.09375 7.101562 -1.34375 7.59375 -1.84375 C 8.082031 -2.351562 8.320312 -3.101562 8.3125 -4.09375 L 8.25 -11.203125 L 9.640625 -11.203125 Z M 9.625 -5.5 "/></g></g></g><g fill="#ffffff" fill-opacity="1"><g transform="translate(218.593657, 349.153756)"><g><path d="M 8.1875 -11.0625 L 8.09375 -9.96875 L 6.125 -10.078125 L 5 -10.078125 L 4.9375 -3.5 L 5 0 L 3.578125 0 L 3.6875 -3.375 L 3.59375 -10.078125 L 2.46875 -10.078125 L 0.46875 -9.96875 L 0.390625 -10.109375 L 0.484375 -11.203125 L 8.09375 -11.203125 Z M 8.1875 -11.0625 "/></g></g></g><g fill="#ffffff" fill-opacity="1"><g transform="translate(232.813731, 349.153756)"><g><path d="M 2.96875 -3.5 L 3.046875 0 L 1.625 0 L 1.71875 -3.375 L 1.625 -11.203125 L 3.0625 -11.203125 Z M 2.96875 -3.5 "/></g></g></g><g fill="#ffffff" fill-opacity="1"><g transform="translate(243.156826, 349.153756)"><g><path d="M 5.671875 -11.296875 C 7.210938 -11.296875 8.394531 -10.820312 9.21875 -9.875 C 10.039062 -8.9375 10.453125 -7.582031 10.453125 -5.8125 C 10.453125 -3.90625 10.015625 -2.4375 9.140625 -1.40625 C 8.265625 -0.375 7.015625 0.140625 5.390625 0.140625 C 3.878906 0.140625 2.710938 -0.347656 1.890625 -1.328125 C 1.066406 -2.304688 0.65625 -3.695312 0.65625 -5.5 C 0.65625 -7.363281 1.085938 -8.796875 1.953125 -9.796875 C 2.828125 -10.796875 4.066406 -11.296875 5.671875 -11.296875 Z M 5.59375 -10.171875 C 3.257812 -10.171875 2.09375 -8.664062 2.09375 -5.65625 C 2.09375 -4.0625 2.375 -2.878906 2.9375 -2.109375 C 3.507812 -1.335938 4.363281 -0.953125 5.5 -0.953125 C 7.832031 -0.953125 9 -2.488281 9 -5.5625 C 9 -7.113281 8.710938 -8.269531 8.140625 -9.03125 C 7.578125 -9.789062 6.726562 -10.171875 5.59375 -10.171875 Z M 5.59375 -10.171875 "/></g></g></g><g fill="#ffffff" fill-opacity="1"><g transform="translate(259.90915, 349.153756)"><g><path d="M 10.21875 -3.28125 L 10.25 0 L 8.78125 0 L 2.984375 -8.96875 L 2.90625 -8.96875 L 2.875 -3.6875 L 2.90625 0 L 1.640625 0 L 1.6875 -3.3125 L 1.65625 -11.203125 L 3.109375 -11.203125 L 8.890625 -2.234375 L 9.015625 -2.234375 L 9 -11.125 L 10.3125 -11.234375 Z M 10.21875 -3.28125 "/></g></g></g><g fill="#ffffff" fill-opacity="1"><g transform="translate(277.499749, 349.153756)"><g><path d="M 4.671875 -11.28125 C 5.472656 -11.28125 6.300781 -11.109375 7.15625 -10.765625 L 6.9375 -9.421875 L 6.6875 -9.34375 C 6.351562 -9.601562 5.992188 -9.800781 5.609375 -9.9375 C 5.234375 -10.082031 4.859375 -10.15625 4.484375 -10.15625 C 4.054688 -10.15625 3.679688 -10.066406 3.359375 -9.890625 C 3.035156 -9.710938 2.789062 -9.484375 2.625 -9.203125 C 2.457031 -8.921875 2.375 -8.628906 2.375 -8.328125 C 2.375 -8.015625 2.46875 -7.738281 2.65625 -7.5 C 2.851562 -7.257812 3.097656 -7.050781 3.390625 -6.875 C 3.679688 -6.707031 4.078125 -6.5 4.578125 -6.25 C 5.203125 -5.957031 5.707031 -5.6875 6.09375 -5.4375 C 6.476562 -5.1875 6.804688 -4.867188 7.078125 -4.484375 C 7.359375 -4.097656 7.5 -3.632812 7.5 -3.09375 C 7.5 -2.507812 7.335938 -1.972656 7.015625 -1.484375 C 6.703125 -0.992188 6.257812 -0.601562 5.6875 -0.3125 C 5.125 -0.0195312 4.472656 0.125 3.734375 0.125 C 3.242188 0.125 2.734375 0.0546875 2.203125 -0.078125 C 1.679688 -0.210938 1.191406 -0.40625 0.734375 -0.65625 L 0.90625 -2.09375 L 1.09375 -2.1875 C 1.507812 -1.789062 1.960938 -1.492188 2.453125 -1.296875 C 2.953125 -1.109375 3.425781 -1.015625 3.875 -1.015625 C 4.320312 -1.015625 4.71875 -1.097656 5.0625 -1.265625 C 5.40625 -1.441406 5.664062 -1.675781 5.84375 -1.96875 C 6.019531 -2.257812 6.109375 -2.570312 6.109375 -2.90625 C 6.109375 -3.394531 5.921875 -3.785156 5.546875 -4.078125 C 5.179688 -4.378906 4.617188 -4.703125 3.859375 -5.046875 C 3.242188 -5.347656 2.75 -5.617188 2.375 -5.859375 C 2 -6.097656 1.675781 -6.40625 1.40625 -6.78125 C 1.144531 -7.164062 1.015625 -7.628906 1.015625 -8.171875 C 1.015625 -8.742188 1.164062 -9.269531 1.46875 -9.75 C 1.78125 -10.226562 2.210938 -10.601562 2.765625 -10.875 C 3.316406 -11.144531 3.953125 -11.28125 4.671875 -11.28125 Z M 4.671875 -11.28125 "/></g></g></g></svg>