<svg xmlns="http://www.w3.org/2000/svg" xmlns:xlink="http://www.w3.org/1999/xlink" width="500" zoomAndPan="magnify" viewBox="0 0 375 374.999991" height="500" preserveAspectRatio="xMidYMid meet" version="1.0"><defs><clipPath id="619f47d33d"><path d="M 34.21875 0 L 340.96875 0 L 340.96875 375 L 34.21875 375 Z M 34.21875 0 " clip-rule="nonzero"/></clipPath></defs><g clip-path="url(#619f47d33d)"><path fill="#35396e" d="M 283.765625 137.902344 L 187.5 0.0585938 L 34.222656 219.535156 L 101.015625 287.265625 C 101.773438 288.085938 102.535156 288.863281 103.304688 289.589844 L 187.5 374.972656 L 340.777344 219.535156 L 284 138.234375 L 284.058594 138.171875 C 283.964844 138.078125 283.859375 137.992188 283.765625 137.902344 Z M 270.132812 129.390625 C 264.542969 127.28125 258.3125 126.253906 251.613281 126.390625 C 232.726562 126.773438 201.433594 136.53125 158.941406 180.355469 C 154.964844 176.335938 146.410156 168.667969 134.460938 163.339844 C 121.445312 157.53125 102.269531 153.722656 80.339844 164.519531 L 187.5 11.066406 Z M 71.90625 177.34375 C 91.46875 163.140625 111.539062 160.425781 131.554688 169.277344 C 142.6875 174.199219 150.773438 181.515625 154.339844 185.121094 C 131.007812 208.78125 104.894531 221.300781 76.675781 222.34375 C 60.953125 222.933594 48.796875 219.589844 43.210938 217.671875 L 71.632812 176.972656 Z M 105.140625 281.996094 L 104.890625 282.21875 L 95.402344 272.601562 C 98.261719 273.140625 101.597656 273.507812 105.390625 273.507812 C 117.941406 273.507812 138.292969 269.34375 163.976562 249.515625 C 183.410156 234.507812 232.277344 200.824219 266.171875 212.199219 C 281.351562 217.296875 292.105469 231.113281 298.132812 253.269531 L 298.851562 253.074219 L 263.777344 288.644531 C 264.171875 277.503906 261.082031 269.292969 254.5 264.207031 C 237.828125 251.308594 203.859375 262.667969 178.296875 274.464844 C 130.183594 296.671875 117.300781 295.742188 105.140625 281.996094 Z M 120.613281 298.167969 C 122.121094 298.367188 123.667969 298.472656 125.285156 298.472656 C 126.4375 298.472656 127.617188 298.421875 128.828125 298.328125 C 140.28125 297.417969 155.90625 292.074219 181.066406 280.460938 C 214.855469 264.867188 239.5 260.949219 250.457031 269.429688 C 256.558594 274.148438 258.535156 283.148438 256.359375 296.164062 L 187.5 365.992188 Z M 332.605469 218.847656 L 303.570312 248.289062 C 296.75 225.757812 284.886719 211.511719 268.273438 205.9375 C 232.691406 193.996094 185.125 224.839844 159.9375 244.289062 C 136 262.773438 117.347656 266.789062 105.917969 266.902344 C 93.671875 267.023438 86.894531 262.808594 86.828125 262.769531 L 86.382812 263.460938 L 49.882812 226.445312 C 55.882812 227.824219 63.75 229.023438 72.980469 229.023438 C 74.15625 229.023438 75.351562 229.003906 76.566406 228.964844 C 97.890625 228.242188 129.894531 220.460938 161.289062 187.445312 C 179.007812 168.8125 196.257812 154.691406 212.554688 145.464844 C 226.746094 137.433594 239.929688 133.242188 251.738281 133 C 262.929688 132.777344 272.523438 136.203125 279.453125 142.921875 L 279.519531 142.851562 Z M 332.605469 218.847656 " fill-opacity="1" fill-rule="nonzero"/></g></svg>